<?xml version="1.0" encoding="UTF-8"?>
<svg version="1.1" xmlns="http://www.w3.org/2000/svg" width="441" height="427">
<path d="M0 0 C145.53 0 291.06 0 441 0 C441 140.91 441 281.82 441 427 C295.47 427 149.94 427 0 427 C0 286.09 0 145.18 0 0 Z " fill="#E7E7E7" transform="translate(0,0)"/>
<path d="M0 0 C1.23333824 -0.00256805 1.23333824 -0.00256805 2.49159241 -0.00518799 C5.25898877 -0.00850179 8.02614377 0.00255419 10.79351807 0.01345825 C12.80647906 0.01407081 14.81944048 0.01380412 16.83240128 0.01272774 C22.22941928 0.01227569 27.62634884 0.02387844 33.02334595 0.03794861 C38.08524865 0.04932739 43.14712969 0.04987424 48.20904541 0.05130005 C63.01879023 0.06180019 77.82851854 0.08972243 92.63824463 0.11550903 C142.26199463 0.17738403 142.26199463 0.17738403 192.88824463 0.24050903 C192.88824463 86.70050903 192.88824463 173.16050903 192.88824463 262.24050903 C166.6171695 262.83757892 140.40782885 263.40745364 114.13907814 263.40736961 C110.66146388 263.40791415 107.18385617 263.40982458 103.70624352 263.41326332 C94.46913715 263.42236974 85.2320448 263.42661405 75.99493408 263.42581177 C67.44748112 263.42520336 58.90008969 263.43593978 50.35265237 263.45155543 C42.92408228 263.4646343 35.49553248 263.46999606 28.06695098 263.46935636 C23.66696969 263.46910303 19.26704451 263.47186741 14.86707497 263.48253441 C10.76172851 263.49223037 6.65649213 263.4922845 2.55114174 263.48501778 C1.05359231 263.48397636 -0.44396412 263.48630832 -1.94150162 263.49237823 C-9.54594222 263.52120196 -16.78343074 263.49884855 -24.11175537 261.24050903 C-26.6863663 256.09128718 -24.76966023 249.47908426 -23.67425537 244.05300903 C-23.53954834 243.35498169 -23.40484131 242.65695435 -23.26605225 241.93777466 C-22.63115718 238.68277605 -21.96486419 235.44587904 -21.11175537 232.24050903 C-20.45175537 232.24050903 -19.79175537 232.24050903 -19.11175537 232.24050903 C-19.10752343 231.54504754 -19.10329149 230.84958605 -19.09893131 230.13304996 C-18.99326031 212.79947464 -18.8843906 195.46592195 -18.77241611 178.13238621 C-18.71832362 169.74826939 -18.66514529 161.36414903 -18.61444092 152.98001099 C-18.49059087 132.57991006 -18.34496846 112.18009943 -18.17322528 91.78034389 C-18.12317216 85.77789878 -18.0794197 79.7754236 -18.03723145 73.7729187 C-17.98251692 66.0513778 -17.916019 58.3300273 -17.83622473 50.60870379 C-17.79463342 46.56259647 -17.75774761 42.51658945 -17.73333931 38.47033882 C-17.71049636 34.71851607 -17.67380719 30.96708406 -17.62641835 27.21549344 C-17.60441282 25.19641027 -17.59683572 23.17718585 -17.58974266 21.15799522 C-17.4949096 14.77960545 -17.2485847 9.85946302 -14.11175537 4.24050903 C-13.45175537 4.24050903 -12.79175537 4.24050903 -12.11175537 4.24050903 C-12.11175537 3.58050903 -12.11175537 2.92050903 -12.11175537 2.24050903 C-8.29636796 -0.27656848 -4.40144519 -0.03328951 0 0 Z " fill="#131313" transform="translate(248.11175537109375,121.75949096679688)"/>
<path d="M0 0 C0.15681929 11.3805998 -4.71551009 19.67609811 -12.26953125 27.8984375 C-14.75630012 30.91848638 -16.85403625 34.16991783 -19 37.4375 C-26.09779767 48.21980215 -26.09779767 48.21980215 -30 53 C-30.66 53 -31.32 53 -32 53 C-32.26554688 53.57105469 -32.53109375 54.14210937 -32.8046875 54.73046875 C-41.48425877 71.21030832 -58.28302813 79.44090082 -74.44921875 86.88671875 C-75.21153809 87.24080811 -75.97385742 87.59489746 -76.75927734 87.9597168 C-78.21977014 88.63776864 -79.6835191 89.30886374 -81.15087891 89.97192383 C-85.87373156 92.18979159 -89.23226058 94.6932177 -93 98.3125 C-96.31499985 101.49448255 -99.62882558 104.49618514 -103.3125 107.25 C-112.36749559 115.3341507 -114.87997728 128.73621218 -117.9375 139.9375 C-122.2646721 155.78743853 -128.41194133 168.64900035 -138 182 C-138.42297363 182.70036377 -138.84594727 183.40072754 -139.28173828 184.12231445 C-141 186 -141 186 -143.42016602 186.50170898 C-144.35530029 186.49985596 -145.29043457 186.49800293 -146.25390625 186.49609375 C-147.78241211 186.49706055 -147.78241211 186.49706055 -149.34179688 186.49804688 C-150.40462891 186.47806641 -151.46746094 186.45808594 -152.5625 186.4375 C-153.62919922 186.44458984 -154.69589844 186.45167969 -155.79492188 186.45898438 C-161.67212584 186.41059701 -161.67212584 186.41059701 -164 186 C-164.66 185.01 -165.32 184.02 -166 183 C-166.66 183 -167.32 183 -168 183 C-168.06058594 182.16855469 -168.12117188 181.33710938 -168.18359375 180.48046875 C-168.26738281 179.39378906 -168.35117188 178.30710938 -168.4375 177.1875 C-168.51871094 176.10855469 -168.59992188 175.02960938 -168.68359375 173.91796875 C-168.90212461 170.94010095 -168.90212461 170.94010095 -170 168 C-170.09170834 166.4803437 -170.12790326 164.95699058 -170.12939453 163.43457031 C-170.13254669 162.50799622 -170.13569885 161.58142212 -170.13894653 160.62677002 C-170.1369223 159.62071716 -170.13489807 158.61466431 -170.1328125 157.578125 C-170.13376923 156.52711609 -170.13472595 155.47610718 -170.13571167 154.39324951 C-170.13639359 152.1537673 -170.13453846 149.91428313 -170.13037109 147.67480469 C-170.12512959 144.33263364 -170.13025902 140.99060373 -170.13671875 137.6484375 C-170.14057323 126.86465994 -170.01027048 116.09932813 -169.55859375 105.32421875 C-169.50126572 103.92438751 -169.50126572 103.92438751 -169.44277954 102.49627686 C-168.49487181 82.25862086 -160.37637236 63.36978677 -145.375 49.375 C-137.29666823 42.81539461 -128.53490223 35.97457913 -118.26953125 33.57421875 C-115.08416962 32.76828388 -112.25053979 31.39103769 -109.30078125 29.96484375 C-107 29 -107 29 -103.84155273 28.10229492 C-100.62957847 27.18065121 -97.47080523 26.16974924 -94.30714417 25.09640503 C-74.60346069 18.46154597 -57.04440845 14.76991936 -36.21876526 15.80889893 C-26.81611525 16.26214824 -20.09792134 15.39754031 -12.8125 9.125 C-11.98363281 8.42632812 -11.15476563 7.72765625 -10.30078125 7.0078125 C-9.54152344 6.34523438 -8.78226563 5.68265625 -8 5 C-2.19856459 0 -2.19856459 0 0 0 Z " fill="#3E4B33" transform="translate(251,44)"/>
<path d="M0 0 C-1.06968854 2.22166082 -2.17266768 4.25727739 -3.54971886 6.30910397 C-5.15814042 9.29341858 -5.37992903 11.00613528 -5.39199829 14.36683655 C-5.40308908 15.43329753 -5.41417986 16.49975851 -5.42560673 17.59853649 C-5.42110083 19.34232318 -5.42110083 19.34232318 -5.41650391 21.12133789 C-5.42510909 22.35706449 -5.43371428 23.59279108 -5.44258022 24.86596394 C-5.4634586 28.27019079 -5.47113952 31.67398185 -5.47326779 35.07824087 C-5.47883052 38.69883454 -5.5017188 42.31931928 -5.52281189 45.93984985 C-5.55659442 52.11348283 -5.58024084 58.28708236 -5.59671021 64.46078491 C-5.6224557 74.03554751 -5.6682777 83.61015276 -5.71850586 93.18481445 C-5.73088973 95.56796008 -5.7432416 97.95110586 -5.75558358 100.3342517 C-5.76378411 101.9170568 -5.77201136 103.49986176 -5.78026551 105.08266658 C-5.80883709 110.59639767 -5.83473093 116.1101375 -5.85966492 121.62388611 C-5.96774532 145.18776083 -6.18299054 168.74875761 -6.52776337 192.31046677 C-6.56254445 194.69054154 -6.59658851 197.07062584 -6.63043213 199.45071411 C-6.74722879 207.63392368 -6.87201216 215.81694799 -7 224 C8.51 224 24.02 224 40 224 C40 224.66 40 225.32 40 226 C93.13 226 146.26 226 201 226 C201 237.55 201 249.1 201 261 C161.09768745 262.16401145 121.21258532 262.18784531 81.29703796 262.18511021 C73.68614127 262.18546535 66.07529004 262.19714178 58.46440774 262.2110464 C51.03583765 262.22412527 43.60728786 262.22948703 36.17870635 262.22884732 C31.77872506 262.22859399 27.37879988 262.23135837 22.97883034 262.24202538 C18.87348388 262.25172134 14.7682475 262.25177546 10.66289711 262.24450874 C9.16534768 262.24346733 7.66779125 262.24579929 6.17025375 262.2518692 C-1.43418685 262.28069292 -8.67167537 262.25833952 -16 260 C-18.57461093 254.85077815 -16.65790486 248.23857523 -15.5625 242.8125 C-15.42779297 242.11447266 -15.29308594 241.41644531 -15.15429688 240.69726562 C-14.51940181 237.44226702 -13.85310881 234.20537001 -13 231 C-12.34 231 -11.68 231 -11 231 C-10.99576806 230.30453851 -10.99153612 229.60907701 -10.98717594 228.89254093 C-10.88150494 211.55896561 -10.77263523 194.22541292 -10.66066074 176.89187717 C-10.60656825 168.50776036 -10.55338991 160.12364 -10.50268555 151.73950195 C-10.3788355 131.33940103 -10.23321309 110.9395904 -10.06146991 90.53983486 C-10.01141678 84.53738975 -9.96766433 78.53491457 -9.92547607 72.53240967 C-9.87076155 64.81086876 -9.80426363 57.08951827 -9.72446936 49.36819476 C-9.68287805 45.32208744 -9.64599224 41.27608042 -9.62158394 37.22982979 C-9.59874099 33.47800704 -9.56205182 29.72657502 -9.51466298 25.97498441 C-9.49265745 23.95590124 -9.48508035 21.93667681 -9.47798729 19.91748619 C-9.38315423 13.53909642 -9.13682933 8.61895398 -6 3 C-5.34 3 -4.68 3 -4 3 C-4 2.34 -4 1.68 -4 1 C-2 0 -2 0 0 0 Z " fill="#939393" transform="translate(240,123)"/>
<path d="M0 0 C0.99 0.495 0.99 0.495 2 1 C2 1.66 2 2.32 2 3 C8.03561289 3.754652 13.90039753 4.14286378 19.97877502 4.12025452 C20.83584374 4.12110894 21.69291245 4.12196337 22.57595295 4.12284368 C25.42248334 4.1244792 28.26895363 4.11900895 31.11547852 4.11352539 C33.16604104 4.11324308 35.21660367 4.11340212 37.26716614 4.1139679 C42.8160519 4.11425414 48.36491594 4.1083853 53.91379666 4.10139394 C59.71938036 4.09513167 65.52496459 4.09455433 71.33055115 4.09336853 C82.31628927 4.09026369 93.30201741 4.08206171 104.28775114 4.07201904 C116.7979986 4.06083161 129.30824655 4.05534082 141.81849778 4.05032361 C167.5456709 4.03987839 193.27283447 4.02209329 219 4 C219 10.93 219 17.86 219 25 C193.000151 25.11586526 167.00036443 25.20503467 141.00030899 25.25906086 C128.92736254 25.28481565 116.8545797 25.31991423 104.78173828 25.37719727 C94.25605302 25.42711546 83.73048628 25.45931081 73.20468593 25.47044247 C67.63402171 25.47694692 62.06369649 25.49217768 56.49314117 25.52865028 C51.24329606 25.56274259 45.99392762 25.57302623 40.74398232 25.56553841 C38.82360297 25.56690704 36.90320668 25.57676017 34.98292351 25.59602737 C22.44768043 25.7155658 12.31568816 24.95267133 2 17 C1.34 16.67 0.68 16.34 0 16 C0 10.72 0 5.44 0 0 Z " fill="#E3E3E3" transform="translate(222,380)"/>
<path d="M0 0 C1.12606167 -0.00128164 1.12606167 -0.00128164 2.27487206 -0.00258917 C4.79144693 -0.00423685 7.3079552 0.00126579 9.82452393 0.00672913 C11.62804666 0.00701118 13.4315695 0.00685291 15.23509216 0.00628662 C20.13346944 0.00599935 25.0318223 0.01188484 29.9301939 0.01886058 C35.04847274 0.0251057 40.16675212 0.02569884 45.28503418 0.02688599 C54.97825663 0.02999588 64.67146781 0.03820467 74.3646853 0.04823548 C85.39963309 0.05940722 96.43458141 0.06490974 107.46953344 0.06993091 C130.17022683 0.08038755 152.87090943 0.09818149 175.57159424 0.12025452 C175.57159424 6.06025452 175.57159424 12.00025452 175.57159424 18.12025452 C151.37201992 18.14338189 127.17244825 18.16123807 102.9728651 18.17206669 C91.73713493 18.17722775 80.50141173 18.18426686 69.26568604 18.19569397 C59.47512044 18.20564657 49.6845599 18.21210932 39.89398938 18.21434301 C34.70772858 18.21564913 29.52148224 18.21872881 24.33522606 18.22598457 C19.45734055 18.23275385 14.57947553 18.23486961 9.70158577 18.2333622 C7.90806848 18.23363811 6.11455053 18.23563787 4.32103729 18.23945999 C1.87854511 18.24441138 -0.56386905 18.24324741 -3.00636292 18.24050903 C-3.72134077 18.24342187 -4.43631863 18.24633472 -5.17296249 18.24933583 C-8.20930749 18.2400903 -10.52208461 18.08902823 -13.42840576 17.12025452 C-13.2873059 15.01576514 -13.14036401 12.91166681 -12.99090576 10.80775452 C-12.90969482 9.6359967 -12.82848389 8.46423889 -12.74481201 7.25697327 C-12.42840576 4.12025452 -12.42840576 4.12025452 -11.42840576 1.12025452 C-7.85283467 -0.40101565 -3.82408413 -0.01590388 0 0 Z " fill="#2B2B2B" transform="translate(265.42840576171875,350.87974548339844)"/>
<path d="M0 0 C0.33 0 0.66 0 1 0 C1.33 2.97 1.66 5.94 2 9 C5.75152932 9.00626149 9.49921432 8.94669961 13.25 8.875 C14.31347656 8.87757813 15.37695312 8.88015625 16.47265625 8.8828125 C21.94557618 8.9595504 21.94557618 8.9595504 26.62695312 6.60644531 C27.89937857 4.80646774 27.89937857 4.80646774 29 2 C29.99 2.33 30.98 2.66 32 3 C35.34030644 3.22725627 38.67423929 3.39266285 42.01953125 3.51757812 C46.11893087 3.71987624 49.25404124 4.3798303 53 6 C53.3812662 29.22497692 53.3812662 29.22497692 51.78393555 40.6862793 C51.01056619 46.36791147 50.67733535 52.02240675 50.4375 57.75 C50.39947266 58.63880859 50.36144531 59.52761719 50.32226562 60.44335938 C50.24922893 62.16420641 50.17662312 63.88507179 50.10449219 65.60595703 C49.95767848 68.96963744 49.77784429 72.32738643 49.5625 75.6875 C49.47162109 77.17830078 49.47162109 77.17830078 49.37890625 78.69921875 C49 81 49 81 47 83 C46.00194864 87.31033429 45.92082602 91.40349918 46 95.8125 C46.10355839 109.79288321 46.10355839 109.79288321 44 114 C43.7724985 115.87056791 43.59037189 117.74685958 43.4375 119.625 C43.35371094 120.62789063 43.26992187 121.63078125 43.18359375 122.6640625 C43.09271484 123.82035156 43.09271484 123.82035156 43 125 C41.35 125 39.7 125 38 125 C36.8239997 122.6479994 36.87915459 121.26265599 36.88647461 118.64208984 C36.88655014 117.74130707 36.88662567 116.84052429 36.88670349 115.91244507 C36.89186478 114.93844757 36.89702606 113.96445007 36.90234375 112.9609375 C36.9037587 111.96494537 36.90517365 110.96895325 36.90663147 109.94277954 C36.91224064 106.75348947 36.9247947 103.56426894 36.9375 100.375 C36.94251382 98.21614685 36.94707693 96.05729259 36.95117188 93.8984375 C36.96221305 88.5989345 36.97896012 83.29947222 37 78 C38.32 78 39.64 78 41 78 C41 76.35 41 74.7 41 73 C41.66 73 42.32 73 43 73 C45.17260433 67.7346295 45.20729761 63.20628955 45.0625 57.625 C44.94972283 52.36206525 44.96985537 47.31997902 45.71704102 42.09033203 C46.03753919 39.72268285 46.25667821 37.35668558 46.46484375 34.9765625 C46.58182617 33.66171875 46.58182617 33.66171875 46.70117188 32.3203125 C46.85801462 30.53152743 47.01168999 28.74246166 47.16210938 26.953125 C47.71114372 20.86464654 48.68323959 14.96920672 50 9 C48.741875 9.165 47.48375 9.33 46.1875 9.5 C40.7855491 10.11073012 35.42939662 10.09133564 30 10 C29.67 10.99 29.34 11.98 29 13 C28.00419922 13.03867188 28.00419922 13.03867188 26.98828125 13.078125 C21.47071035 13.43253831 17.90939836 13.74565472 14 18 C10.49823658 22.6436428 8.87572348 26.82873006 7.5 32.375 C7.2935083 33.18501465 7.0870166 33.9950293 6.87426758 34.82958984 C5.18656986 41.7086587 3.87914658 48.64458473 2.6875 55.625 C2.51605469 56.61935059 2.34460938 57.61370117 2.16796875 58.63818359 C1.21993335 64.50514016 0.834602 70.0579236 1 76 C-0.98 76.495 -0.98 76.495 -3 77 C-2.688288 74.47906702 -2.37565098 71.9582543 -2.0625 69.4375 C-1.97548828 68.73302734 -1.88847656 68.02855469 -1.79882812 67.30273438 C-1.71181641 66.60341797 -1.62480469 65.90410156 -1.53515625 65.18359375 C-1.4475 64.47114502 -1.35984375 63.75869629 -1.26953125 63.0246582 C-1.03772916 61.28341295 -0.7453449 59.55042479 -0.44140625 57.8203125 C0.22767472 52.02950556 0.146145 46.26160217 0.125 40.4375 C0.1237915 39.18928467 0.12258301 37.94106934 0.12133789 36.6550293 C0.08936334 29.11739758 -0.12211888 21.67825362 -0.87890625 14.17578125 C-0.91886719 13.45777344 -0.95882812 12.73976562 -1 12 C-0.67 11.67 -0.34 11.34 0 11 C-0.66 10.67 -1.32 10.34 -2 10 C-2 8.68 -2 7.36 -2 6 C-1.34 6 -0.68 6 0 6 C0 4.02 0 2.04 0 0 Z " fill="#D9D9D9" transform="translate(85,221)"/>
<path d="M0 0 C1.21566118 -0.00128164 1.21566118 -0.00128164 2.45588118 -0.00258917 C5.15660989 -0.00422908 7.85727572 0.00125291 10.55799866 0.00672913 C12.49989317 0.00701135 14.4417878 0.00685258 16.38368225 0.00628662 C21.64550599 0.006 26.90730688 0.01187488 32.16912532 0.01886058 C37.67175985 0.02511664 43.17439493 0.0256997 48.67703247 0.02688599 C59.09264038 0.02999266 69.50823778 0.0381971 79.92384106 0.04823548 C91.78351031 0.05941723 103.64318006 0.06491226 115.50285327 0.06993091 C139.89502019 0.08038026 164.28717778 0.09796686 188.67933655 0.12025452 C188.67933655 2.10025452 188.67933655 4.08025452 188.67933655 6.12025452 C162.54128276 6.16693844 136.40323521 6.20222565 110.26514816 6.22387886 C98.12927102 6.23419925 85.99341974 6.24827415 73.8575592 6.27113342 C63.28214414 6.29104396 52.70674781 6.3039654 42.13131452 6.30843151 C36.52973185 6.31104285 30.92820279 6.31719647 25.32663727 6.33171463 C20.05722396 6.34526163 14.78788648 6.349483 9.51845741 6.34646988 C7.58183951 6.34702133 5.64521913 6.35101589 3.70861626 6.35866547 C1.06934751 6.36858159 -1.56963299 6.3662356 -4.20890808 6.36076355 C-4.97933732 6.36658923 -5.74976656 6.37241492 -6.54354215 6.37841713 C-10.2899799 6.35734933 -13.14199999 6.21727416 -16.32066345 4.12025452 C-15.99066345 3.13025452 -15.66066345 2.14025452 -15.32066345 1.12025452 C-10.18560122 0.27160631 -5.20715341 -0.02032846 0 0 Z " fill="#717170" transform="translate(252.32066345214844,398.87974548339844)"/>
<path d="M0 0 C-1.06968854 2.22166082 -2.17266768 4.25727739 -3.54971886 6.30910397 C-5.15814042 9.29341858 -5.37992903 11.00613528 -5.39199829 14.36683655 C-5.40308908 15.43329753 -5.41417986 16.49975851 -5.42560673 17.59853649 C-5.4226028 18.76106095 -5.41959887 19.92358541 -5.41650391 21.12133789 C-5.42510909 22.35706449 -5.43371428 23.59279108 -5.44258022 24.86596394 C-5.4634586 28.27019079 -5.47113952 31.67398185 -5.47326779 35.07824087 C-5.47883052 38.69883454 -5.5017188 42.31931928 -5.52281189 45.93984985 C-5.55659442 52.11348283 -5.58024084 58.28708236 -5.59671021 64.46078491 C-5.6224557 74.03554751 -5.6682777 83.61015276 -5.71850586 93.18481445 C-5.73088973 95.56796008 -5.7432416 97.95110586 -5.75558358 100.3342517 C-5.76378411 101.9170568 -5.77201136 103.49986176 -5.78026551 105.08266658 C-5.80883709 110.59639767 -5.83473093 116.1101375 -5.85966492 121.62388611 C-5.96774532 145.18776083 -6.18299054 168.74875761 -6.52776337 192.31046677 C-6.56254445 194.69054154 -6.59658851 197.07062584 -6.63043213 199.45071411 C-6.74722879 207.63392368 -6.87201216 215.81694799 -7 224 C8.51 224 24.02 224 40 224 C40 224.66 40 225.32 40 226 C93.13 226 146.26 226 201 226 C201 226.66 201 227.32 201 228 C193.0552852 229.09328978 185.20268508 229.14176362 177.1940918 229.12939453 C175.71112017 229.13075198 174.22814888 229.13253384 172.74517822 229.13470459 C168.73362003 229.13924556 164.72208771 229.1375011 160.71052909 229.1343255 C156.47822744 229.13177564 152.24592785 229.13414754 148.0136261 229.13571167 C140.88774219 229.13752952 133.76186866 229.13514109 126.63598633 229.13037109 C118.47308402 229.12496895 110.31020685 229.12666294 102.14730519 229.1321975 C95.08771895 229.13678756 88.02814014 229.13734965 80.96855289 229.13475883 C76.77593853 229.13322287 72.58333582 229.13292572 68.39072227 229.13629532 C52.64233067 229.14717249 36.90777493 229.09722061 21.16723633 228.55419922 C20.02973529 228.51547762 18.89223425 228.47675602 17.72026348 228.43686104 C12.41157584 228.2285487 7.23947938 227.8900219 2 227 C2 226.34 2 225.68 2 225 C-1.63 225 -5.26 225 -9 225 C-9.13495614 173.88467322 -9.00697265 122.771057 -8.66698426 71.65681583 C-8.63326191 66.51619375 -8.60475311 61.37555846 -8.57839966 56.2348938 C-8.54586 49.91249676 -8.50616495 43.59019343 -8.45731026 37.26790059 C-8.4322175 34.00084496 -8.41130681 30.73385736 -8.39663887 27.46673584 C-8.37992019 23.89573546 -8.35098882 20.32504039 -8.31884766 16.75415039 C-8.31668778 15.699899 -8.31452791 14.6456476 -8.31230259 13.5594492 C-8.30113879 12.60014972 -8.28997499 11.64085024 -8.2784729 10.65248108 C-8.27294214 9.82084977 -8.26741138 8.98921846 -8.26171303 8.13238621 C-8 6 -8 6 -6 3 C-5.34 3 -4.68 3 -4 3 C-4 2.34 -4 1.68 -4 1 C-2 0 -2 0 0 0 Z " fill="#666666" transform="translate(240,123)"/>
<path d="M0 0 C-0.25680094 7.10054603 -0.93387143 12.09755529 -5 18 C-5.495 17.01 -5.495 17.01 -6 16 C-6.61875 16.33 -7.2375 16.66 -7.875 17 C-10 18 -10 18 -12 18 C-12 18.99 -12 19.98 -12 21 C-15.18828278 22.88935276 -17.35171033 23 -21 23 C-21.66 23.66 -22.32 24.32 -23 25 C-24.0209375 25.2475 -24.0209375 25.2475 -25.0625 25.5 C-26.0215625 25.7475 -26.0215625 25.7475 -27 26 C-27.33 26.66 -27.66 27.32 -28 28 C-28.66 28 -29.32 28 -30 28 C-30 28.66 -30 29.32 -30 30 C-29.01 30.33 -28.02 30.66 -27 31 C-27.70125 31.12375 -28.4025 31.2475 -29.125 31.375 C-32.18503931 32.04022594 -35.04223305 32.97383596 -38 34 C-40 34.66666667 -42 35.33333333 -44 36 C-43.79375 35.38125 -43.5875 34.7625 -43.375 34.125 C-43.189375 33.073125 -43.189375 33.073125 -43 32 C-43.66 31.34 -44.32 30.68 -45 30 C-44.175 29.2575 -43.35 28.515 -42.5 27.75 C-39.55155147 25.12612615 -39.55155147 25.12612615 -40 21 C-41.299375 20.855625 -42.59875 20.71125 -43.9375 20.5625 C-48.625 20.04166667 -53.3125 19.52083333 -58 19 C-58 19.66 -58 20.32 -58 21 C-56.35 21 -54.7 21 -53 21 C-53.66 21.66 -54.32 22.32 -55 23 C-56.32 23 -57.64 23 -59 23 C-59 22.34 -59 21.68 -59 21 C-59.62648437 21.15597656 -60.25296875 21.31195313 -60.8984375 21.47265625 C-62.12433594 21.76462891 -62.12433594 21.76462891 -63.375 22.0625 C-64.59316406 22.35833984 -64.59316406 22.35833984 -65.8359375 22.66015625 C-68 23 -68 23 -70 22 C-71.92208023 22.06013696 -71.92208023 22.06013696 -74 22.375 C-74.70125 22.46523437 -75.4025 22.55546875 -76.125 22.6484375 C-78.08191554 22.92649064 -78.08191554 22.92649064 -80 24 C-80.99 23.34 -81.98 22.68 -83 22 C-68.25963622 16.24766292 -54.77879523 15.43992809 -39.17456055 15.95898438 C-29.00291483 16.26791627 -20.86526823 16.05820414 -12.8125 9.125 C-11.98363281 8.42632812 -11.15476562 7.72765625 -10.30078125 7.0078125 C-9.54152344 6.34523438 -8.78226562 5.68265625 -8 5 C-2.19856459 0 -2.19856459 0 0 0 Z " fill="#5E6255" transform="translate(251,44)"/>
<path d="M0 0 C4.67692308 1.47692308 4.67692308 1.47692308 6.3125 4.125 C6.539375 4.74375 6.76625 5.3625 7 6 C8.65 5.67 10.3 5.34 12 5 C12 5.66 12 6.32 12 7 C12.66 6.67 13.32 6.34 14 6 C16.59143905 5.68954474 19.18371732 5.49026088 21.78515625 5.28125 C23.97070668 5.2334259 23.97070668 5.2334259 25 4 C26.41570123 3.91348389 27.835595 3.89295096 29.25390625 3.90234375 C30.53491211 3.90717773 30.53491211 3.90717773 31.84179688 3.91210938 C32.73962891 3.92048828 33.63746094 3.92886719 34.5625 3.9375 C35.46419922 3.94201172 36.36589844 3.94652344 37.29492188 3.95117188 C39.53001314 3.96299775 41.76497437 3.9794778 44 4 C44 4.66 44 5.32 44 6 C47.65947553 7.14986014 51.11946653 7.13314948 54.9375 7.125 C56.14277344 7.12757813 57.34804687 7.13015625 58.58984375 7.1328125 C61.54169096 7.01784938 64.12937172 6.63735978 67 6 C68.6662553 5.9629721 70.33401319 5.95240038 72 6 C72 7.65 72 9.3 72 11 C70.7934375 11.185625 70.7934375 11.185625 69.5625 11.375 C68.716875 11.58125 67.87125 11.7875 67 12 C66.67 12.66 66.34 13.32 66 14 C56.97010704 16.404209 47.47257609 16.31486414 38.19482422 16.26074219 C35.97466591 16.24987601 33.75529248 16.2607816 31.53515625 16.2734375 C30.10676907 16.27211803 28.67838237 16.26956005 27.25 16.265625 C25.97640625 16.26336914 24.7028125 16.26111328 23.390625 16.25878906 C20.12068342 16.00921115 17.95070763 15.35558941 15 14 C12.4412403 13.51002474 9.88347822 13.12621117 7.3046875 12.7578125 C4.36889796 11.79248509 3.50591428 10.66093591 2 8 C1.8125 4.75 1.8125 4.75 2 2 C1.34 2 0.68 2 0 2 C0 1.34 0 0.68 0 0 Z " fill="#C6C6C6" transform="translate(48,379)"/>
<path d="M0 0 C20.46 0 40.92 0 62 0 C61.34 1.65 60.68 3.3 60 5 C60.495 5.99 60.495 5.99 61 7 C60.67 7.66 60.34 8.32 60 9 C65.28 9 70.56 9 76 9 C76 9.33 76 9.66 76 10 C69.43977719 10.94339487 63.35248514 10.94906052 56.76171875 10.25390625 C54.15517759 10.01426668 51.61554246 9.95712225 49 10 C49 10.66 49 11.32 49 12 C48.29875 11.84660156 47.5975 11.69320313 46.875 11.53515625 C43.90983475 10.98321652 41.00576409 10.67903461 38 10.4375 C36.989375 10.35371094 35.97875 10.26992188 34.9375 10.18359375 C32.28106102 10.01756631 29.66051361 9.96576545 27 10 C27 10.66 27 11.32 27 12 C27.66 12.33 28.32 12.66 29 13 C26.69 12.67 24.38 12.34 22 12 C22 11.34 22 10.68 22 10 C20.87980469 10.02320313 19.75960938 10.04640625 18.60546875 10.0703125 C17.13281916 10.08907237 15.66016237 10.10727234 14.1875 10.125 C13.44951172 10.14175781 12.71152344 10.15851563 11.95117188 10.17578125 C8.08753574 10.21074628 6.29096332 10.19397555 3 8 C2.01 7.67 1.02 7.34 0 7 C0 4.69 0 2.38 0 0 Z " fill="#232323" transform="translate(259,351)"/>
<path d="M0 0 C0 2.31 0 4.62 0 7 C2.31 7.33 4.62 7.66 7 8 C7 8.33 7 8.66 7 9 C11.95 9.33 16.9 9.66 22 10 C22 10.66 22 11.32 22 12 C23.65 12 25.3 12 27 12 C27 11.34 27 10.68 27 10 C30.3 9.67 33.6 9.34 37 9 C37 9.99 37 10.98 37 12 C38.98 12.99 40.96 13.98 43 15 C43 15.66 43 16.32 43 17 C48.61 17 54.22 17 60 17 C60 16.34 60 15.68 60 15 C61.98 15 63.96 15 66 15 C66 15.66 66 16.32 66 17 C73.59 17 81.18 17 89 17 C89 15.35 89 13.7 89 12 C90.32 12 91.64 12 93 12 C94.125 15.75 94.125 15.75 93 18 C80.40458662 18.02314282 67.80917827 18.04092502 55.21374798 18.05181217 C49.36555418 18.05703674 43.5173749 18.0641267 37.66918945 18.07543945 C32.02822031 18.08628341 26.38726515 18.09228006 20.74628639 18.09487724 C18.59125358 18.09672876 16.43622156 18.10034416 14.28119469 18.10573006 C11.26907048 18.11296046 8.2570045 18.11399009 5.24487305 18.11352539 C4.34863724 18.11712067 3.45240143 18.12071594 2.52900696 18.12442017 C1.70871002 18.1230455 0.88841309 18.12167084 0.04325867 18.12025452 C-0.66928731 18.12117631 -1.38183329 18.1220981 -2.11597157 18.12304783 C-4 18 -4 18 -7 17 C-6.85890014 14.89551062 -6.71195825 12.7914123 -6.5625 10.6875 C-6.48128906 9.51574219 -6.40007812 8.34398437 -6.31640625 7.13671875 C-6 4 -6 4 -5 1 C-3.28960011 0.41205004 -1.81522119 0 0 0 Z " fill="#2F2F2F" transform="translate(259,351)"/>
<path d="M0 0 C0.33 0 0.66 0 1 0 C1.33 2.97 1.66 5.94 2 9 C6.95 9 11.9 9 17 9 C17 9.33 17 9.66 17 10 C15.35 10.33 13.7 10.66 12 11 C17.445 11.495 17.445 11.495 23 12 C21.02 12.99 21.02 12.99 19 14 C12.18360752 18.77147473 9.43804742 24.56170445 7.5 32.375 C7.2935083 33.18501465 7.0870166 33.9950293 6.87426758 34.82958984 C5.18656986 41.7086587 3.87914658 48.64458473 2.6875 55.625 C2.51605469 56.61935059 2.34460938 57.61370117 2.16796875 58.63818359 C1.21993335 64.50514016 0.834602 70.0579236 1 76 C-0.98 76.495 -0.98 76.495 -3 77 C-2.688288 74.47906702 -2.37565098 71.9582543 -2.0625 69.4375 C-1.97548828 68.73302734 -1.88847656 68.02855469 -1.79882812 67.30273438 C-1.71181641 66.60341797 -1.62480469 65.90410156 -1.53515625 65.18359375 C-1.4475 64.47114502 -1.35984375 63.75869629 -1.26953125 63.0246582 C-1.03772916 61.28341295 -0.7453449 59.55042479 -0.44140625 57.8203125 C0.22767472 52.02950556 0.146145 46.26160217 0.125 40.4375 C0.1237915 39.18928467 0.12258301 37.94106934 0.12133789 36.6550293 C0.08936334 29.11739758 -0.12211888 21.67825362 -0.87890625 14.17578125 C-0.91886719 13.45777344 -0.95882812 12.73976562 -1 12 C-0.67 11.67 -0.34 11.34 0 11 C-0.66 10.67 -1.32 10.34 -2 10 C-2 8.68 -2 7.36 -2 6 C-1.34 6 -0.68 6 0 6 C0 4.02 0 2.04 0 0 Z " fill="#7F8A75" transform="translate(85,221)"/>
<path d="M0 0 C0.33 0 0.66 0 1 0 C1 1.65 1 3.3 1 5 C1.66 5 2.32 5 3 5 C4.09254178 8.27762534 3.89338555 9.05614666 3 12.25 C1.82583081 17.08064236 1.72138662 21.44277323 4 26 C4.66 26 5.32 26 6 26 C6 30.29 6 34.58 6 39 C4.02 39 2.04 39 0 39 C-0.33 38.67 -0.66 38.34 -1 38 C-1.02485249 42.71394473 -1.04293186 47.4278507 -1.05493164 52.1418457 C-1.05993805 53.74308945 -1.06674515 55.34432867 -1.07543945 56.94555664 C-1.08766764 59.25668458 -1.09326536 61.56775169 -1.09765625 63.87890625 C-1.10281754 64.58648575 -1.10797882 65.29406525 -1.11329651 66.02308655 C-1.11410653 73.31757026 -0.26447899 79.47104203 3 86 C3.2275015 87.87056791 3.40962811 89.74685958 3.5625 91.625 C3.64628906 92.62789063 3.73007813 93.63078125 3.81640625 94.6640625 C3.87699219 95.43492187 3.93757813 96.20578125 4 97 C4.99 97 5.98 97 7 97 C7 98.32 7 99.64 7 101 C7.78375 100.649375 8.5675 100.29875 9.375 99.9375 C10.674375 99.4734375 10.674375 99.4734375 12 99 C12.66 99.33 13.32 99.66 14 100 C14.66 98.35 15.32 96.7 16 95 C16.66 95.33 17.32 95.66 18 96 C17.34 97.65 16.68 99.3 16 101 C18.94727535 100.89830839 18.94727535 100.89830839 22 100 C23.41666667 97.66666667 23.41666667 97.66666667 24 95 C24.495 93.515 24.495 93.515 25 92 C27 93 27 93 28 95 C28.66 95 29.32 95 30 95 C28.79618552 97.49361571 27.54571278 99.68143083 26 102 C23.69335937 102.38818359 23.69335937 102.38818359 20.84375 102.3984375 C19.82152344 102.40230469 18.79929687 102.40617187 17.74609375 102.41015625 C16.67488281 102.39855469 15.60367188 102.38695312 14.5 102.375 C12.89318359 102.39240234 12.89318359 102.39240234 11.25390625 102.41015625 C10.23167969 102.40628906 9.20945312 102.40242188 8.15625 102.3984375 C7.21587891 102.39505371 6.27550781 102.39166992 5.30664062 102.38818359 C4.16485352 102.19603271 4.16485352 102.19603271 3 102 C2.34 101.01 1.68 100.02 1 99 C0.34 99 -0.32 99 -1 99 C-1.06058594 98.16855469 -1.12117188 97.33710938 -1.18359375 96.48046875 C-1.26738281 95.39378906 -1.35117188 94.30710937 -1.4375 93.1875 C-1.51871094 92.10855469 -1.59992188 91.02960938 -1.68359375 89.91796875 C-1.90212461 86.94010095 -1.90212461 86.94010095 -3 84 C-3.09170834 82.4803437 -3.12790326 80.95699058 -3.12939453 79.43457031 C-3.13254669 78.50799622 -3.13569885 77.58142212 -3.13894653 76.62677002 C-3.1369223 75.62071716 -3.13489807 74.61466431 -3.1328125 73.578125 C-3.13376923 72.52711609 -3.13472595 71.47610718 -3.13571167 70.39324951 C-3.13639359 68.1537673 -3.13453846 65.91428313 -3.13037109 63.67480469 C-3.12512959 60.33263364 -3.13025902 56.99060373 -3.13671875 53.6484375 C-3.14129226 42.94203898 -3.02686891 32.24607812 -2.6171875 21.546875 C-2.58682404 20.64350403 -2.55646057 19.74013306 -2.525177 18.80938721 C-2.24384591 12.4116877 -1.28105877 6.27112351 0 0 Z " fill="#6E8064" transform="translate(84,128)"/>
<path d="M0 0 C0.99 0.33 1.98 0.66 3 1 C3.12117188 2.28132812 3.24234375 3.56265625 3.3671875 4.8828125 C4.48470925 16.50345998 5.77845128 28.0492895 7.79296875 39.5546875 C9.50468385 49.50628639 10.40794143 58.89211792 10 69 C11.32 69.66 12.64 70.32 14 71 C8.25 71.125 8.25 71.125 6 70 C6.16371094 70.93972656 6.32742187 71.87945312 6.49609375 72.84765625 C7.19019649 77.7063754 7.10834309 82.53934211 7.0625 87.4375 C7.05798828 88.35982422 7.05347656 89.28214844 7.04882812 90.23242188 C7.03713938 92.48835048 7.02075455 94.74413967 7 97 C6.67 97 6.34 97 6 97 C5.95512451 96.40614502 5.91024902 95.81229004 5.86401367 95.20043945 C5.63950988 92.2377163 5.4134363 89.27511425 5.1875 86.3125 C5.10056885 85.16201172 5.0136377 84.01152344 4.92407227 82.82617188 C4.39966673 75.95695617 3.83954195 69.09294812 3.234375 62.23046875 C1.4232935 41.48388586 0.36313033 20.8228158 0 0 Z " fill="#D2D2D1" transform="translate(36,229)"/>
<path d="M0 0 C0 0.99 0 1.98 0 3 C-0.99 3.66 -1.98 4.32 -3 5 C-4.21284876 8.05429073 -4.21284876 8.05429073 -5 11 C-5.66 11 -6.32 11 -7 11 C-7 9.35 -7 7.7 -7 6 C-7.721875 6.144375 -8.44375 6.28875 -9.1875 6.4375 C-10.5796875 6.7159375 -10.5796875 6.7159375 -12 7 C-12.73863281 7.17402344 -13.47726563 7.34804688 -14.23828125 7.52734375 C-17.53052754 8.0907975 -20.66051718 8.13219716 -24 8.125 C-25.794375 8.12886719 -25.794375 8.12886719 -27.625 8.1328125 C-30.55327693 8.01757938 -33.15786976 7.67823563 -36 7 C-35.67 6.01 -35.34 5.02 -35 4 C-38.12536637 4.13857841 -41.25018217 4.28709569 -44.375 4.4375 C-45.26445313 4.47681641 -46.15390625 4.51613281 -47.0703125 4.55664062 C-47.92109375 4.59853516 -48.771875 4.64042969 -49.6484375 4.68359375 C-50.43395996 4.72025146 -51.21948242 4.75690918 -52.02880859 4.79467773 C-54.07523496 4.890891 -54.07523496 4.890891 -56 6 C-56 4.35 -56 2.7 -56 1 C-52.30337353 -0.1463487 -48.74450288 -0.18923463 -44.890625 -0.28125 C-44.20498474 -0.29965942 -43.51934448 -0.31806885 -42.81292725 -0.33703613 C-40.62536895 -0.39556654 -38.4377324 -0.44841618 -36.25 -0.5 C-34.07655725 -0.55174864 -31.90320384 -0.60492418 -29.72991943 -0.66296387 C-27.74745146 -0.71589763 -25.76484007 -0.76337763 -23.78222656 -0.81054688 C-3.74212374 -1.81436302 -3.74212374 -1.81436302 0 0 Z " fill="#CBCBCB" transform="translate(127,379)"/>
<path d="M0 0 C1.51207031 -0.00193359 1.51207031 -0.00193359 3.0546875 -0.00390625 C4.09625 -0.00003906 5.1378125 0.00382812 6.2109375 0.0078125 C7.26023437 0.00394531 8.30953125 0.00007813 9.390625 -0.00390625 C10.89882813 -0.00197266 10.89882813 -0.00197266 12.4375 0 C13.35354004 0.00112793 14.26958008 0.00225586 15.21337891 0.00341797 C17.5859375 0.1328125 17.5859375 0.1328125 20.5859375 1.1328125 C20.5859375 1.7928125 20.5859375 2.4528125 20.5859375 3.1328125 C19.9259375 3.1328125 19.2659375 3.1328125 18.5859375 3.1328125 C18.5859375 3.7928125 18.5859375 4.4528125 18.5859375 5.1328125 C21.2259375 5.7928125 23.8659375 6.4528125 26.5859375 7.1328125 C26.5859375 7.7928125 26.5859375 8.4528125 26.5859375 9.1328125 C28.2359375 9.1328125 29.8859375 9.1328125 31.5859375 9.1328125 C31.2559375 10.1228125 30.9259375 11.1128125 30.5859375 12.1328125 C25.3059375 11.1428125 20.0259375 10.1528125 14.5859375 9.1328125 C14.9159375 9.7928125 15.2459375 10.4528125 15.5859375 11.1328125 C17.94192985 11.60033038 17.94192985 11.60033038 20.6484375 11.7578125 C22.02708984 11.86996094 22.02708984 11.86996094 23.43359375 11.984375 C24.14386719 12.03335937 24.85414063 12.08234375 25.5859375 12.1328125 C25.5859375 12.4628125 25.5859375 12.7928125 25.5859375 13.1328125 C22.85650213 13.18697991 20.12815186 13.22656475 17.3984375 13.2578125 C16.62951172 13.27457031 15.86058594 13.29132813 15.06835938 13.30859375 C10.70358169 13.34605965 7.59885336 13.00550657 3.5859375 11.1328125 C1.49015504 10.55956209 -0.6146362 10.01838809 -2.7265625 9.5078125 C-3.79519531 9.24742187 -4.86382812 8.98703125 -5.96484375 8.71875 C-6.77308594 8.52539062 -7.58132813 8.33203125 -8.4140625 8.1328125 C-8.4140625 7.4728125 -8.4140625 6.8128125 -8.4140625 6.1328125 C-10.0640625 5.8028125 -11.7140625 5.4728125 -13.4140625 5.1328125 C-12.4240625 4.8028125 -11.4340625 4.4728125 -10.4140625 4.1328125 C-10.4140625 3.1428125 -10.4140625 2.1528125 -10.4140625 1.1328125 C-6.88287304 0.32958056 -3.61865507 0.00444474 0 0 Z " fill="#1D1D1D" transform="translate(343.4140625,350.8671875)"/>
<path d="M0 0 C-0.25680094 7.10054603 -0.93387143 12.09755529 -5 18 C-5.495 17.01 -5.495 17.01 -6 16 C-6.61875 16.33 -7.2375 16.66 -7.875 17 C-10 18 -10 18 -12 18 C-12 18.99 -12 19.98 -12 21 C-15.18828278 22.88935276 -17.35171033 23 -21 23 C-21.66 23.66 -22.32 24.32 -23 25 C-23.99 24.67 -24.98 24.34 -26 24 C-26.33 23.01 -26.66 22.02 -27 21 C-28.32 21 -29.64 21 -31 21 C-31 20.34 -31 19.68 -31 19 C-34.63 19 -38.26 19 -42 19 C-42 18.67 -42 18.34 -42 18 C-45.96 17.67 -49.92 17.34 -54 17 C-54 16.67 -54 16.34 -54 16 C-53.22922119 16.01571045 -52.45844238 16.0314209 -51.66430664 16.04760742 C-48.13044744 16.11044219 -44.59670629 16.14914427 -41.0625 16.1875 C-39.24395508 16.22520508 -39.24395508 16.22520508 -37.38867188 16.26367188 C-27.80477569 16.34158973 -20.27016337 15.5458358 -12.8125 9.125 C-11.98363281 8.42632812 -11.15476563 7.72765625 -10.30078125 7.0078125 C-9.54152344 6.34523438 -8.78226563 5.68265625 -8 5 C-2.19856459 0 -2.19856459 0 0 0 Z " fill="#696D5F" transform="translate(251,44)"/>
<path d="M0 0 C1.65 0 3.3 0 5 0 C4.34 1.98 3.68 3.96 3 6 C2.34 6 1.68 6 1 6 C0.87625 6.886875 0.7525 7.77375 0.625 8.6875 C0.30136099 10.99399772 -0.04948092 13.28987938 -0.44140625 15.5859375 C-1.81071716 23.80180294 -2.59394139 32.00444503 -3.21459961 40.30883789 C-3.61005076 45.18722374 -4.23386214 49.39298146 -6 54 C-7.97973555 61.35679506 -8.23473648 68.41018721 -8 76 C-9.65 75.67 -11.3 75.34 -13 75 C-12.0794634 62.65211246 -10.41478036 50.43269233 -8.51544189 38.20269775 C-8.25844658 36.54715297 -8.00410259 34.89119408 -7.75262451 33.23480225 C-3.86136897 7.72273794 -3.86136897 7.72273794 0 0 Z " fill="#C9D3A1" transform="translate(79,303)"/>
<path d="M0 0 C13.53 0 27.06 0 41 0 C41 2.31 41 4.62 41 7 C27.47 7 13.94 7 0 7 C0 4.69 0 2.38 0 0 Z " fill="#D3D3D3" transform="translate(400,384)"/>
<path d="M0 0 C-1.067409 2.21692638 -2.16200741 4.2381166 -3.54929829 6.27714062 C-5.22127144 9.41531006 -5.38275484 11.34192128 -5.39872742 14.87825012 C-5.41126556 16.05469086 -5.42380371 17.23113159 -5.4367218 18.44322205 C-5.43456917 20.36588646 -5.43456917 20.36588646 -5.43237305 22.32739258 C-5.44139398 23.69757978 -5.45172202 25.0677589 -5.46325684 26.43792725 C-5.49081435 30.15034406 -5.5001096 33.8626077 -5.50611091 37.57511353 C-5.51549787 41.4575826 -5.54170151 45.33993741 -5.56611633 49.22233582 C-5.60977621 56.57095984 -5.63832629 63.91956168 -5.66143972 71.26827592 C-5.68849415 79.63589213 -5.7324055 88.00339336 -5.77772844 96.37092745 C-5.87056738 113.5805591 -5.94225152 130.79021557 -6 148 C-6.33 148 -6.66 148 -7 148 C-8.09406622 120.48971332 -8.18781016 92.98626392 -8.18530273 65.45727539 C-8.18519924 59.2145167 -8.19908756 52.97186703 -8.21607494 46.72913456 C-8.22714403 41.88487726 -8.22922387 37.04064736 -8.22869301 32.19637871 C-8.22987169 29.89062547 -8.23428721 27.58487149 -8.24202538 25.27913094 C-8.25176367 22.0910339 -8.24897683 18.9031885 -8.24291992 15.71508789 C-8.24853943 14.76940948 -8.25415894 13.82373108 -8.25994873 12.84939575 C-8.25575424 11.98567856 -8.25155975 11.12196136 -8.24723816 10.23207092 C-8.24778293 9.482567 -8.24832769 8.73306307 -8.24888897 7.9608469 C-8 6 -8 6 -6 3 C-5.34 3 -4.68 3 -4 3 C-4 2.34 -4 1.68 -4 1 C-2 0 -2 0 0 0 Z " fill="#4E4E4D" transform="translate(240,123)"/>
<path d="M0 0 C1.08861328 -0.01224609 2.17722656 -0.02449219 3.29882812 -0.03710938 C4.86987305 -0.04000977 4.86987305 -0.04000977 6.47265625 -0.04296875 C7.90170288 -0.04913208 7.90170288 -0.04913208 9.35961914 -0.05541992 C12.02273782 0.19553217 13.65581797 0.83152321 15.9375 2.1875 C15.9375 2.5175 15.9375 2.8475 15.9375 3.1875 C14.2875 3.1875 12.6375 3.1875 10.9375 3.1875 C10.9375 3.8475 10.9375 4.5075 10.9375 5.1875 C12.4225 5.6825 12.4225 5.6825 13.9375 6.1875 C13.6075 7.1775 13.2775 8.1675 12.9375 9.1875 C11.2875 9.1875 9.6375 9.1875 7.9375 9.1875 C7.9375 9.8475 7.9375 10.5075 7.9375 11.1875 C12.2275 11.5175 16.5175 11.8475 20.9375 12.1875 C20.9375 12.5175 20.9375 12.8475 20.9375 13.1875 C18.10357074 13.26924796 15.27205181 13.32834985 12.4375 13.375 C11.64601563 13.40013672 10.85453125 13.42527344 10.0390625 13.45117188 C4.31619682 13.52153498 0.18546143 12.48047398 -5.0625 10.1875 C-5.0625 9.8575 -5.0625 9.5275 -5.0625 9.1875 C-2.08398438 8.89453125 -2.08398438 8.89453125 0.89453125 8.6015625 C3.23738142 8.26084609 3.23738142 8.26084609 5.9375 6.1875 C4.43509766 6.42146484 4.43509766 6.42146484 2.90234375 6.66015625 C1.55997165 6.85728782 0.21751927 7.05387324 -1.125 7.25 C-1.78177734 7.35376953 -2.43855469 7.45753906 -3.11523438 7.56445312 C-8.56335474 8.34275603 -13.74214707 8.67490573 -18.5 5.625 C-19.015625 5.150625 -19.53125 4.67625 -20.0625 4.1875 C-19.0725 4.1875 -18.0825 4.1875 -17.0625 4.1875 C-17.0625 3.1975 -17.0625 2.2075 -17.0625 1.1875 C-11.37178497 -0.10804714 -5.81092864 0.00345272 0 0 Z " fill="#1C1C1C" transform="translate(394.0625,350.8125)"/>
<path d="M0 0 C0.33 0 0.66 0 1 0 C1.02500545 4.49828743 1.04300224 8.99653638 1.05493164 13.49487305 C1.05991292 15.02027086 1.06670038 16.54566401 1.07543945 18.07104492 C1.12398826 26.77270449 1.0402367 35.34387026 0 44 C-1.65 44 -3.3 44 -5 44 C-6.48679725 41.02640551 -6.11112605 38.33700821 -6.09765625 35.0234375 C-6.09553383 33.99556625 -6.09553383 33.99556625 -6.09336853 32.94692993 C-6.08776675 30.75624239 -6.07521406 28.5656567 -6.0625 26.375 C-6.05748522 24.89062648 -6.05292228 23.40625135 -6.04882812 21.921875 C-6.03779677 18.28121685 -6.02053099 14.64061836 -6 11 C-5.34 11 -4.68 11 -4 11 C-4 8.69 -4 6.38 -4 4 C-3.67 4 -3.34 4 -3 4 C-3 5.65 -3 7.3 -3 9 C-2.34 9 -1.68 9 -1 9 C-1.020625 7.700625 -1.04125 6.40125 -1.0625 5.0625 C-1.08399454 3.70834367 -1.07148199 2.35243917 -1 1 C-0.67 0.67 -0.34 0.34 0 0 Z " fill="#AEA9A5" transform="translate(128,302)"/>
<path d="M0 0 C70.62 0 141.24 0 214 0 C214 0.33 214 0.66 214 1 C212.99116729 1.00423194 211.98233458 1.00846388 210.94293118 1.01282406 C186.3972121 1.11601205 161.85152246 1.22475984 137.30585384 1.33933926 C125.43576471 1.39462019 113.56567258 1.44809376 101.69555664 1.49731445 C91.34972324 1.54021913 81.0039115 1.58651295 70.65811163 1.63687855 C65.17998381 1.66342886 59.70186015 1.68828062 54.2237072 1.70907402 C49.06672488 1.7287019 43.90978361 1.75286391 38.75283813 1.78049088 C36.86103119 1.78982879 34.96921526 1.79751567 33.07739449 1.80341911 C30.49177271 1.81173591 27.90624909 1.82602777 25.32066345 1.84178162 C24.57453653 1.84275972 23.8284096 1.84373783 23.05967277 1.84474558 C17.95866014 1.88462926 12.77385202 1.99132654 7.9375 3.75 C4.79615891 4.15533433 2.66843813 2.51615803 0 1 C0 0.67 0 0.34 0 0 Z " fill="#C6C6C6" transform="translate(227,398)"/>
<path d="M0 0 C0 1.65 0 3.3 0 5 C-4.92553814 6.91245142 -9.34817746 7.45332546 -14.5625 7.6875 C-15.77933472 7.74828735 -15.77933472 7.74828735 -17.02075195 7.81030273 C-26.70205196 8.20190381 -36.33985815 7.62478529 -46 7 C-46 5.68 -46 4.36 -46 3 C-41.60982482 2.17191808 -37.38598748 1.83026384 -32.921875 1.71875 C-31.58333323 1.6809934 -30.24479156 1.64323287 -28.90625 1.60546875 C-26.81708643 1.55165995 -24.72788866 1.49945284 -22.63867188 1.44775391 C-20.60794902 1.39608519 -18.57743647 1.33886442 -16.546875 1.28125 C-14.73461426 1.23581055 -14.73461426 1.23581055 -12.88574219 1.18945312 C-8.3706199 0.89302885 -4.7544277 -0.07668432 0 0 Z " fill="#AFAFAF" transform="translate(120,385)"/>
<path d="M0 0 C8.58 0 17.16 0 26 0 C26 3.63 26 7.26 26 11 C8.23003195 9.36102236 8.23003195 9.36102236 2 5 C1.34 3.35 0.68 1.7 0 0 Z " fill="#1F1F1F" transform="translate(415,351)"/>
<path d="M0 0 C0.33 0.66 0.66 1.32 1 2 C1.99 1.67 2.98 1.34 4 1 C3.67 1.99 3.34 2.98 3 4 C5.97 4.33 8.94 4.66 12 5 C12 5.33 12 5.66 12 6 C9.36 6 6.72 6 4 6 C3.96261719 6.66644531 3.92523438 7.33289063 3.88671875 8.01953125 C3.46250663 13.96681876 2.47908475 19.33528015 0.79174805 25.04614258 C0.04119387 27.8463137 -0.48973062 30.57945488 -0.94140625 33.44140625 C-2.07583974 40.47034969 -3.274113 47.48644045 -4.5 54.5 C-4.71269531 55.7478125 -4.92539063 56.995625 -5.14453125 58.28125 C-5.35464844 59.4775 -5.56476563 60.67375 -5.78125 61.90625 C-5.96751953 62.98197266 -6.15378906 64.05769531 -6.34570312 65.16601562 C-6.94606304 67.76638053 -7.78151421 69.65447665 -9 72 C-9.38749213 74.32495277 -9.72982839 76.65851268 -10 79 C-10.33 79 -10.66 79 -11 79 C-11.26432484 71.86322922 -10.54696507 65.06152992 -7.98828125 58.34375 C-6.64498199 53.79883236 -6.39967372 49.33731723 -6.0625 44.625 C-5.30783484 35.24904633 -4.01530859 26.18980716 -2 17 C-1.84660156 16.21882813 -1.69320312 15.43765625 -1.53515625 14.6328125 C-1.35855469 14.09398437 -1.18195313 13.55515625 -1 13 C-0.34 12.67 0.32 12.34 1 12 C1.72159424 10.35636866 2.39351421 8.68949614 3 7 C1.35 7 -0.3 7 -2 7 C-2.33 7.66 -2.66 8.32 -3 9 C-3.75 6.75 -3.75 6.75 -4 4 C-2.0625 1.6875 -2.0625 1.6875 0 0 Z " fill="#D7E1BC" transform="translate(81,296)"/>
<path d="M0 0 C1.32 0 2.64 0 4 0 C4.02689216 1.47906892 4.04634621 2.95827483 4.0625 4.4375 C4.07410156 5.26121094 4.08570313 6.08492188 4.09765625 6.93359375 C4 9 4 9 3 10 C2.95919217 11.99958364 2.95745644 14.00045254 3 16 C3.58152832 15.96970703 4.16305664 15.93941406 4.76220703 15.90820312 C24.89699328 14.88393304 44.88258637 14.50586848 65 16 C65 15.34 65 14.68 65 14 C66.98 14 68.96 14 71 14 C71 14.66 71 15.32 71 16 C78.59 16 86.18 16 94 16 C94 14.35 94 12.7 94 11 C95.32 11 96.64 11 98 11 C99.125 14.75 99.125 14.75 98 17 C85.40458662 17.02314282 72.80917827 17.04092502 60.21374798 17.05181217 C54.36555418 17.05703674 48.5173749 17.0641267 42.66918945 17.07543945 C37.02822031 17.08628341 31.38726515 17.09228006 25.74628639 17.09487724 C23.59125358 17.09672876 21.43622156 17.10034416 19.28119469 17.10573006 C16.26907048 17.11296046 13.2570045 17.11399009 10.24487305 17.11352539 C9.34863724 17.11712067 8.45240143 17.12071594 7.52900696 17.12442017 C6.70871002 17.1230455 5.88841309 17.12167084 5.04325867 17.12025452 C4.33071269 17.12117631 3.61816671 17.1220981 2.88402843 17.12304783 C1 17 1 17 -2 16 C-1.85890014 13.89551062 -1.71195825 11.7914123 -1.5625 9.6875 C-1.48128906 8.51574219 -1.40007812 7.34398437 -1.31640625 6.13671875 C-1 3 -1 3 0 0 Z " fill="#545454" transform="translate(254,352)"/>
<path d="M0 0 C3.04910425 -0.28765134 5.96195504 -0.44725258 9 0 C10.625 2.3125 10.625 2.3125 12 5 C14.31648799 6.03842565 16.64903024 7.0421975 19 8 C19.33 8.99 19.66 9.98 20 11 C25.445 11.495 25.445 11.495 31 12 C31 12.33 31 12.66 31 13 C17.97071086 13.15552202 5.01077137 12.68257988 -8 12 C-6.68 11.67 -5.36 11.34 -4 11 C-4 10.34 -4 9.68 -4 9 C-2.35 9 -0.7 9 1 9 C1 8.01 1 7.02 1 6 C0.34 5.67 -0.32 5.34 -1 5 C-1 4.34 -1 3.68 -1 3 C0.32 2.67 1.64 2.34 3 2 C2.01 1.34 1.02 0.68 0 0 Z " fill="#2A2A2A" transform="translate(406,351)"/>
<path d="M0 0 C0.33 0 0.66 0 1 0 C1.36857673 11.24159031 -1.31563769 21.59332397 -4.09765625 32.3984375 C-5.09872581 36.39404847 -5.90816359 40.29154771 -6.4375 44.375 C-7.01206665 48.07776285 -7.90528979 51.42394666 -9 55 C-11 53 -11 53 -11.15234375 50.65625 C-10.58187191 42.27550013 -9.2377058 34.12554628 -7.6875 25.875 C-7.48697021 24.79154297 -7.28644043 23.70808594 -7.07983398 22.59179688 C-3.30878456 3.30878456 -3.30878456 3.30878456 0 0 Z " fill="#CBD4C2" transform="translate(96,242)"/>
<path d="M0 0 C0.99 0.33 1.98 0.66 3 1 C6.34030644 1.22725627 9.67423929 1.39266285 13.01953125 1.51757812 C17.07239951 1.71758 20.33656259 2.22574698 24 4 C24 4.33 24 4.66 24 5 C22.865625 5.12375 21.73125 5.2475 20.5625 5.375 C19.386875 5.58125 18.21125 5.7875 17 6 C16.67 6.66 16.34 7.32 16 8 C11.05 8 6.1 8 1 8 C0.67 8.99 0.34 9.98 0 11 C-2.66688629 10.85756403 -5.33345767 10.71113422 -8 10.5625 C-8.74378906 10.52318359 -9.48757812 10.48386719 -10.25390625 10.44335938 C-15.20733918 10.16338273 -20.08313469 9.66489429 -25 9 C-25 8.67 -25 8.34 -25 8 C-24.38479492 7.97083496 -23.76958984 7.94166992 -23.13574219 7.91162109 C-20.3380106 7.76228914 -17.54496443 7.56914563 -14.75 7.375 C-13.29787109 7.30732422 -13.29787109 7.30732422 -11.81640625 7.23828125 C-6.70973072 7.01009309 -6.70973072 7.01009309 -2.43554688 4.57519531 C-1.17005257 2.77273796 -1.17005257 2.77273796 0 0 Z " fill="#D3D5D2" transform="translate(114,223)"/>
<path d="M0 0 C-0.12117187 1.03036377 -0.24234375 2.06072754 -0.3671875 3.12231445 C-1.3756285 11.8569053 -2.25803061 20.59408992 -3 29.35546875 C-3.08233887 30.32195343 -3.16467773 31.28843811 -3.24951172 32.28421021 C-3.58748002 36.26731979 -3.92313083 40.25058191 -4.25 44.23461914 C-4.49378099 47.19213015 -4.74624079 50.14879945 -5 53.10546875 C-5.07089844 53.99719284 -5.14179688 54.88891693 -5.21484375 55.80766296 C-5.64881904 60.7825865 -6.45396799 65.24796464 -8 70 C-8.99 70 -9.98 70 -11 70 C-10.69201674 68.51988629 -10.378482 67.04092675 -10.0625 65.5625 C-9.88847656 64.73878906 -9.71445313 63.91507812 -9.53515625 63.06640625 C-9 61 -9 61 -8 60 C-7.93914185 56.13170411 -7.97932914 52.27593847 -8.0390625 48.40820312 C-8.08130373 43.89191175 -7.92037016 39.56391142 -7.28076172 35.0793457 C-6.96157147 32.715395 -6.74311221 30.35285067 -6.53515625 27.9765625 C-6.45716797 27.1 -6.37917969 26.2234375 -6.29882812 25.3203125 C-6.14198538 23.53152743 -5.98831001 21.74246166 -5.83789062 19.953125 C-5.28885628 13.86464654 -4.31676041 7.96920672 -3 2 C-5.64 2 -8.28 2 -11 2 C-7.35157547 -0.3349917 -4.23895694 -0.07914039 0 0 Z " fill="#C2C2C2" transform="translate(138,228)"/>
<path d="M0 0 C0.99 0.33 1.98 0.66 3 1 C2.46890625 1.72445312 1.9378125 2.44890625 1.390625 3.1953125 C0.33101562 4.64550781 0.33101562 4.64550781 -0.75 6.125 C-1.48089844 7.1253125 -2.21179688 8.125625 -2.96484375 9.15625 C-4.48730158 11.28359991 -5.92761939 13.40919102 -7.3125 15.625 C-9 18 -9 18 -12 19 C-13.04611473 20.8361089 -13.04611473 20.8361089 -14 23 C-19.29528555 30.74256617 -25.64025508 37.55888551 -34 42 C-33 40 -32 38 -31 36 C-30.34 36 -29.68 36 -29 36 C-29 35.34 -29 34.68 -29 34 C-28.01 34 -27.02 34 -26 34 C-25.773125 33.29875 -25.54625 32.5975 -25.3125 31.875 C-23.17557235 27.19411087 -19.7146048 23.51909928 -16 20 C-16.66 20 -17.32 20 -18 20 C-15.96248998 14.99883905 -12.1143779 11.90543204 -8 8.5625 C-4.87953971 5.89710684 -2.53657879 3.20802611 0 0 Z " fill="#576E50" transform="translate(231,78)"/>
<path d="M0 0 C3.65316671 1.24976756 4.78065836 1.67098753 7 5 C6.34 5 5.68 5 5 5 C5.33 6.65 5.66 8.3 6 10 C25.93403387 12.59243117 45.91241845 13.22826797 66 13 C66 13.33 66 13.66 66 14 C56.66781368 15.78123035 47.65638557 16.3159364 38.19482422 16.26074219 C35.97466591 16.24987601 33.75529248 16.2607816 31.53515625 16.2734375 C30.10676907 16.27211803 28.67838237 16.26956005 27.25 16.265625 C25.97640625 16.26336914 24.7028125 16.26111328 23.390625 16.25878906 C20.12068342 16.00921115 17.95070763 15.35558941 15 14 C12.4412403 13.51002474 9.88347822 13.12621117 7.3046875 12.7578125 C4.36889796 11.79248509 3.50591428 10.66093591 2 8 C1.8125 4.75 1.8125 4.75 2 2 C1.34 2 0.68 2 0 2 C0 1.34 0 0.68 0 0 Z " fill="#CACACA" transform="translate(48,379)"/>
<path d="M0 0 C2.3639658 4.61308306 3.1854286 8.87983691 4 14 C4.33 14 4.66 14 5 14 C5.33 17.63 5.66 21.26 6 25 C6.99 25 7.98 25 9 25 C9 26.32 9 27.64 9 29 C9.78375 28.649375 10.5675 28.29875 11.375 27.9375 C12.674375 27.4734375 12.674375 27.4734375 14 27 C14.66 27.33 15.32 27.66 16 28 C16.66 26.35 17.32 24.7 18 23 C18.66 23.33 19.32 23.66 20 24 C19.01 26.475 19.01 26.475 18 29 C20.94727535 28.89830839 20.94727535 28.89830839 24 28 C25.41666667 25.66666667 25.41666667 25.66666667 26 23 C26.33 22.01 26.66 21.02 27 20 C29 21 29 21 30 23 C30.66 23 31.32 23 32 23 C30.79618552 25.49361571 29.54571278 27.68143083 28 30 C25.69335938 30.38818359 25.69335938 30.38818359 22.84375 30.3984375 C21.82152344 30.40230469 20.79929687 30.40617187 19.74609375 30.41015625 C18.67488281 30.39855469 17.60367188 30.38695312 16.5 30.375 C14.89318359 30.39240234 14.89318359 30.39240234 13.25390625 30.41015625 C12.23167969 30.40628906 11.20945312 30.40242188 10.15625 30.3984375 C9.21587891 30.39505371 8.27550781 30.39166992 7.30664062 30.38818359 C6.54544922 30.26008301 5.78425781 30.13198242 5 30 C4.34 29.01 3.68 28.02 3 27 C2.34 27 1.68 27 1 27 C0.05757182 17.96278689 -0.11157151 9.07448253 0 0 Z " fill="#465B38" transform="translate(82,200)"/>
<path d="M0 0 C0 0.99 0 1.98 0 3 C-0.99 3.66 -1.98 4.32 -3 5 C-4.21284876 8.05429073 -4.21284876 8.05429073 -5 11 C-5.66 11 -6.32 11 -7 11 C-7 9.35 -7 7.7 -7 6 C-7.639375 6.20625 -8.27875 6.4125 -8.9375 6.625 C-13.21252658 7.14847264 -16.87345947 6.08782441 -21 5 C-21.042721 3.33388095 -21.04063832 1.66617115 -21 0 C-16.77989846 -4.22010154 -4.68685798 -2.27241599 0 0 Z " fill="#DBDBDB" transform="translate(127,379)"/>
<path d="M0 0 C2.0625 0.4375 2.0625 0.4375 4 1 C3.125 5.75 3.125 5.75 2 8 C1.34 8 0.68 8 0 8 C0 8.66 0 9.32 0 10 C0.99 10.33 1.98 10.66 3 11 C2.29875 11.12375 1.5975 11.2475 0.875 11.375 C-2.18503931 12.04022594 -5.04223305 12.97383596 -8 14 C-10 14.66666667 -12 15.33333333 -14 16 C-13.79375 15.38125 -13.5875 14.7625 -13.375 14.125 C-13.25125 13.42375 -13.1275 12.7225 -13 12 C-13.66 11.34 -14.32 10.68 -15 10 C-10.57808032 5.84689002 -6.67309546 3.15577628 -1 1 C-0.67 0.67 -0.34 0.34 0 0 Z " fill="#5A5E50" transform="translate(221,64)"/>
<path d="M0 0 C0.33 0 0.66 0 1 0 C2.21881715 10.17570595 1.58759045 18.76107197 -0.4375 28.8125 C-1.9677303 36.65036394 -3.35473238 43.99689137 -3 52 C-4.98 52.495 -4.98 52.495 -7 53 C-6.688288 50.47906702 -6.37565098 47.9582543 -6.0625 45.4375 C-5.93198242 44.38079102 -5.93198242 44.38079102 -5.79882812 43.30273438 C-5.66831055 42.25375977 -5.66831055 42.25375977 -5.53515625 41.18359375 C-5.44709717 40.47356201 -5.35903809 39.76353027 -5.26831055 39.03198242 C-5.03312778 37.25088494 -4.75083782 35.47613853 -4.4609375 33.703125 C-3.69593235 27.55715146 -3.6408772 21.37303399 -3.48242188 15.18554688 C-3.44826172 14.19232422 -3.41410156 13.19910156 -3.37890625 12.17578125 C-3.3538501 11.27770752 -3.32879395 10.37963379 -3.30297852 9.4543457 C-2.9831925 6.86384706 -2.2606075 5.26198313 -1 3 C-0.67 2.01 -0.34 1.02 0 0 Z " fill="#87927B" transform="translate(89,245)"/>
<path d="M0 0 C1.65 0 3.3 0 5 0 C4.34 1.98 3.68 3.96 3 6 C2.34 6 1.68 6 1 6 C0.87625 6.886875 0.7525 7.77375 0.625 8.6875 C0.41670831 10.12500603 0.20836657 11.56250482 0 13 C-0.14566406 14.03898437 -0.29132813 15.07796875 -0.44140625 16.1484375 C-0.60511719 17.27507812 -0.76882812 18.40171875 -0.9375 19.5625 C-1.09089844 20.63628906 -1.24429688 21.71007812 -1.40234375 22.81640625 C-2.00318775 26.01698049 -2.97159165 28.91477496 -4 32 C-4.55935178 35.12304742 -4.99979327 38.24851594 -5.4375 41.390625 C-6 44 -6 44 -8 46 C-8.70226456 31.72062066 -6.47408376 12.94816753 0 0 Z " fill="#9BB581" transform="translate(79,303)"/>
<path d="M0 0 C0.99 0.33 1.98 0.66 3 1 C3.12117188 2.28132812 3.24234375 3.56265625 3.3671875 4.8828125 C4.12888316 12.7848303 4.89111499 20.65601671 6.125 28.5 C7.0226432 34.56806805 7.91464015 40.89256414 7 47 C5.48046875 48.83203125 5.48046875 48.83203125 4 50 C2.96740992 44.61494532 2.60056906 39.25029099 2.24609375 33.7890625 C2.18092056 32.82092621 2.11574738 31.85278992 2.04859924 30.85531616 C1.84212549 27.77872208 1.63975504 24.70187401 1.4375 21.625 C1.29779722 19.53253396 1.15782622 17.44008581 1.01757812 15.34765625 C0.67527868 10.2319728 0.33665775 5.11605769 0 0 Z " fill="#A7A4A1" transform="translate(36,229)"/>
<path d="M0 0 C0.66 0.33 1.32 0.66 2 1 C0.59230365 2.79872312 -0.82651003 4.58874968 -2.25 6.375 C-3.03890625 7.37273437 -3.8278125 8.37046875 -4.640625 9.3984375 C-6.81578057 11.79687063 -8.17307002 12.66158625 -11 14 C-11.33 14.99 -11.66 15.98 -12 17 C-12.78375 17.598125 -13.5675 18.19625 -14.375 18.8125 C-17.38817542 21.32347952 -18.37302347 23.4630945 -20 27 C-21.31431695 29.01254782 -22.64721885 31.01310269 -24 33 C-25.01059521 34.66026356 -26.01453001 36.32470102 -27 38 C-28 35 -28 35 -26.6640625 31.8125 C-25.99938907 30.53374995 -25.31860067 29.26329354 -24.625 28 C-24.25995361 27.33081543 -23.89490723 26.66163086 -23.51879883 25.97216797 C-17.47659197 15.21932759 -9.76959856 7.39567741 0 0 Z " fill="#6C7C60" transform="translate(114,87)"/>
<path d="M0 0 C5.28 0.66 10.56 1.32 16 2 C16 3.32 16 4.64 16 6 C3.13 6 -9.74 6 -23 6 C-20.12954156 3.12954156 -17.10648091 3.54087015 -13.25 3.375 C-12.54617188 3.33632813 -11.84234375 3.29765625 -11.1171875 3.2578125 C-7.07474582 3.0474252 -3.04891755 2.96180266 1 3 C0.67 2.01 0.34 1.02 0 0 Z " fill="#373737" transform="translate(425,360)"/>
<path d="M0 0 C2.64 0 5.28 0 8 0 C9.2988897 11.36528487 9.56523669 22.65203401 8 34 C7.67 34 7.34 34 7 34 C6.67 24.1 6.34 14.2 6 4 C5.67 6.64 5.34 9.28 5 12 C4.34 12 3.68 12 3 12 C2.67 12.66 2.34 13.32 2 14 C1.34 14 0.68 14 0 14 C0 9.38 0 4.76 0 0 Z " fill="#CBC9C6" transform="translate(122,299)"/>
<path d="M0 0 C1.32 0 2.64 0 4 0 C4.86809439 5.20173095 5.12515348 10.16978816 5.0625 15.4375 C5.05798828 16.16904297 5.05347656 16.90058594 5.04882812 17.65429688 C5.03718148 19.43623419 5.01925191 21.21812863 5 23 C3.35 23 1.7 23 0 23 C-1.66413655 19.6717269 -0.81867406 16.00266027 -0.5625 12.375 C-0.51029297 11.57320313 -0.45808594 10.77140625 -0.40429688 9.9453125 C-0.27451629 7.96320897 -0.13790265 5.98155501 0 4 C0.66 3.67 1.32 3.34 2 3 C1.34 2.67 0.68 2.34 0 2 C0 1.34 0 0.68 0 0 Z " fill="#9E9A96" transform="translate(123,323)"/>
<path d="M0 0 C1.32 0 2.64 0 4 0 C4.02689216 1.47906892 4.04634621 2.95827483 4.0625 4.4375 C4.07410156 5.26121094 4.08570313 6.08492188 4.09765625 6.93359375 C4 9 4 9 3 10 C3 11.98 3 13.96 3 16 C10.59 15.67 18.18 15.34 26 15 C26 15.66 26 16.32 26 17 C21.89584811 17.02898097 17.79172247 17.0467922 13.6875 17.0625 C12.52025391 17.07087891 11.35300781 17.07925781 10.15039062 17.08789062 C8.47299805 17.09272461 8.47299805 17.09272461 6.76171875 17.09765625 C5.2142395 17.10551147 5.2142395 17.10551147 3.63549805 17.11352539 C1 17 1 17 -2 16 C-1.85890014 13.89551062 -1.71195825 11.7914123 -1.5625 9.6875 C-1.48128906 8.51574219 -1.40007812 7.34398437 -1.31640625 6.13671875 C-1 3 -1 3 0 0 Z " fill="#606060" transform="translate(254,352)"/>
<path d="M0 0 C5.61 0 11.22 0 17 0 C17.33 1.32 17.66 2.64 18 4 C18.33 4.99 18.66 5.98 19 7 C16.03 7 13.06 7 10 7 C9.67 6.34 9.34 5.68 9 5 C7.68 5.33 6.36 5.66 5 6 C5 5.34 5 4.68 5 4 C3.35 4 1.7 4 0 4 C0 2.68 0 1.36 0 0 Z " fill="#202020" transform="translate(259,351)"/>
<path d="M0 0 C0.8146875 -0.00386719 1.629375 -0.00773437 2.46875 -0.01171875 C8.49652201 -0.001739 8.49652201 -0.001739 10.75 1.125 C10.75 2.115 10.75 3.105 10.75 4.125 C2.17 4.125 -6.41 4.125 -15.25 4.125 C-15.25 3.135 -15.25 2.145 -15.25 1.125 C-10.12309674 0.08308095 -5.20481535 -0.02518459 0 0 Z " fill="#A6A6A6" transform="translate(89.25,386.875)"/>
<path d="M0 0 C-0.185625 0.78375 -0.37125 1.5675 -0.5625 2.375 C-1.25962266 4.97089775 -1.25962266 4.97089775 0 7 C-0.33 7.66 -0.66 8.32 -1 9 C4.28 9 9.56 9 15 9 C15 9.33 15 9.66 15 10 C13.35 10 11.7 10 10 10 C10 10.66 10 11.32 10 12 C9.27683594 11.85175781 8.55367188 11.70351563 7.80859375 11.55078125 C6.05614142 11.20711535 4.29854174 10.88772221 2.53515625 10.60546875 C-2.95230006 9.67788925 -6.62116526 8.45697479 -11 5 C-10.34 4.67 -9.68 4.34 -9 4 C-9 3.01 -9 2.02 -9 1 C-6.04335481 -0.4783226 -3.25770263 -0.06032783 0 0 Z " fill="#1A1A1A" transform="translate(298,351)"/>
<path d="M0 0 C0.66 0.33 1.32 0.66 2 1 C1.72285156 2.09699219 1.44570312 3.19398438 1.16015625 4.32421875 C0.79420763 5.77862993 0.42832573 7.2330579 0.0625 8.6875 C-0.11990234 9.40873047 -0.30230469 10.12996094 -0.49023438 10.87304688 C-1.69953002 15.68824226 -2.79847033 20.44534256 -3.4375 25.375 C-4.01206665 29.07776285 -4.90528979 32.42394666 -6 36 C-6.66 35.34 -7.32 34.68 -8 34 C-7.9765625 30.7421875 -7.9765625 30.7421875 -7.625 26.875 C-7.51414062 25.59367187 -7.40328125 24.31234375 -7.2890625 22.9921875 C-7.14597656 21.51105469 -7.14597656 21.51105469 -7 20 C-6.34 20 -5.68 20 -5 20 C-4.896875 18.906875 -4.79375 17.81375 -4.6875 16.6875 C-2.99424847 2.99424847 -2.99424847 2.99424847 0 0 Z " fill="#D5DECF" transform="translate(93,261)"/>
<path d="M0 0 C6.93 0 13.86 0 21 0 C21 0.33 21 0.66 21 1 C19.35 1 17.7 1 16 1 C16 2.65 16 4.3 16 6 C5.44191344 7.51708428 5.44191344 7.51708428 1 5 C1 4.34 1 3.68 1 3 C1.66 3 2.32 3 3 3 C3 2.34 3 1.68 3 1 C2.01 0.67 1.02 0.34 0 0 Z " fill="#1E1E1E" transform="translate(361,351)"/>
<path d="M0 0 C2.3639658 4.61308306 3.1854286 8.87983691 4 14 C4.33 14 4.66 14 5 14 C5.06058594 14.73605469 5.12117188 15.47210938 5.18359375 16.23046875 C5.26738281 17.20628906 5.35117188 18.18210938 5.4375 19.1875 C5.55931641 20.63189453 5.55931641 20.63189453 5.68359375 22.10546875 C5.97666151 24.78649602 6.42703754 27.3662986 7 30 C6.34 30 5.68 30 5 30 C4.34 29.01 3.68 28.02 3 27 C2.34 27 1.68 27 1 27 C0.05757182 17.96278689 -0.11157151 9.07448253 0 0 Z " fill="#4D623A" transform="translate(82,200)"/>
<path d="M0 0 C0.33 0 0.66 0 1 0 C1 2.31 1 4.62 1 7 C3.31 7.33 5.62 7.66 8 8 C7.67 9.65 7.34 11.3 7 13 C8.65 13 10.3 13 12 13 C12 13.66 12 14.32 12 15 C7.71 15.66 3.42 16.32 -1 17 C-1.33 14.69 -1.66 12.38 -2 10 C-1.34 10 -0.68 10 0 10 C0 6.7 0 3.4 0 0 Z " fill="#404040" transform="translate(258,351)"/>
<path d="M0 0 C0.66 0.33 1.32 0.66 2 1 C-0.13552597 4.20328895 -1.73232126 5.12108473 -5 7 C-5.66 7.66 -6.32 8.32 -7 9 C-8.83984375 9.59765625 -8.83984375 9.59765625 -10.9375 10.0625 C-13.36629134 10.61181542 -15.62879362 11.20959787 -18 12 C-18 11.34 -18 10.68 -18 10 C-21.63 10 -25.26 10 -29 10 C-29 9.67 -29 9.34 -29 9 C-32.96 8.67 -36.92 8.34 -41 8 C-41 7.67 -41 7.34 -41 7 C-39.84383179 7.02356567 -39.84383179 7.02356567 -38.66430664 7.04760742 C-35.13044744 7.11044219 -31.59670629 7.14914427 -28.0625 7.1875 C-26.24395508 7.22520508 -26.24395508 7.22520508 -24.38867188 7.26367188 C-14.94511998 7.34044872 -7.1433147 6.68245569 0 0 Z " fill="#88897E" transform="translate(238,53)"/>
<path d="M0 0 C0.86625 0.4640625 0.86625 0.4640625 1.75 0.9375 C3.9338937 2.0672869 3.9338937 2.0672869 6.1875 2.5 C6.785625 2.665 7.38375 2.83 8 3 C8.33 3.66 8.66 4.32 9 5 C12.71599191 5.20086443 13.77208445 5.1519437 17 3 C19.48046875 2.8046875 19.48046875 2.8046875 22.1875 2.875 C23.08855469 2.89304687 23.98960938 2.91109375 24.91796875 2.9296875 C25.60503906 2.95289063 26.29210937 2.97609375 27 3 C27 3.33 27 3.66 27 4 C25.02 4 23.04 4 21 4 C21 4.99 21 5.98 21 7 C16.28454907 8.02856226 12.44572936 7.85858129 7.6875 7.125 C6.45386719 6.94195312 5.22023438 6.75890625 3.94921875 6.5703125 C1 6 1 6 0 5 C-0.04063832 3.33382885 -0.042721 1.66611905 0 0 Z " fill="#B5B6B7" transform="translate(53,384)"/>
<path d="M0 0 C0 0.99 0 1.98 0 3 C-0.99 3 -1.98 3 -3 3 C-3 3.66 -3 4.32 -3 5 C-0.69 5.33 1.62 5.66 4 6 C4 6.33 4 6.66 4 7 C2.02 7 0.04 7 -2 7 C-2 7.66 -2 8.32 -2 9 C-4.97 8.505 -4.97 8.505 -8 8 C-8 7.34 -8 6.68 -8 6 C-9.65 5.67 -11.3 5.34 -13 5 C-12.01 4.67 -11.02 4.34 -10 4 C-10 3.01 -10 2.02 -10 1 C-6.59437148 0.22157062 -3.49234244 -0.09978121 0 0 Z " fill="#181818" transform="translate(343,351)"/>
<path d="M0 0 C1.21816406 0.03480469 1.21816406 0.03480469 2.4609375 0.0703125 C3.68683594 0.09738281 3.68683594 0.09738281 4.9375 0.125 C5.87722656 0.15980469 5.87722656 0.15980469 6.8359375 0.1953125 C6.25 6.34765625 6.25 6.34765625 5.8359375 8.1953125 C4.8459375 8.6903125 4.8459375 8.6903125 3.8359375 9.1953125 C3.8359375 8.2053125 3.8359375 7.2153125 3.8359375 6.1953125 C1.8559375 6.5253125 -0.1240625 6.8553125 -2.1640625 7.1953125 C-2.4940625 8.1853125 -2.8240625 9.1753125 -3.1640625 10.1953125 C-4.1640625 9.1953125 -4.1640625 9.1953125 -4.3515625 5.7578125 C-4.15242648 1.97422818 -4.00575463 0.3615302 0 0 Z " fill="#717E6A" transform="translate(89.1640625,232.8046875)"/>
<path d="M0 0 C1.65 0 3.3 0 5 0 C5 0.99 5 1.98 5 3 C6.12359581 4.79081118 6.12359581 4.79081118 8 6 C10.62570704 6.25069913 10.62570704 6.25069913 13 6 C13 6.66 13 7.32 13 8 C10.11584117 9.44207941 7.58278472 9.09394887 4.375 9.0625 C3.18648438 9.05347656 1.99796875 9.04445313 0.7734375 9.03515625 C-0.14179688 9.02355469 -1.05703125 9.01195312 -2 9 C-1.67 8.01 -1.34 7.02 -1 6 C-1.66 5.67 -2.32 5.34 -3 5 C-3 4.34 -3 3.68 -3 3 C-2.01 3 -1.02 3 0 3 C0 2.01 0 1.02 0 0 Z " fill="#2D2D2D" transform="translate(343,351)"/>
<path d="M0 0 C3.65316671 1.24976756 4.78065836 1.67098753 7 5 C6.34 5 5.68 5 5 5 C5.33 6.65 5.66 8.3 6 10 C10.62 10.66 15.24 11.32 20 12 C20.33 12.99 20.66 13.98 21 15 C24.63 15 28.26 15 32 15 C32 15.33 32 15.66 32 16 C30.10448978 16.05441656 28.2085208 16.09298035 26.3125 16.125 C25.25675781 16.14820313 24.20101562 16.17140625 23.11328125 16.1953125 C19.93062825 15.99564795 17.90083883 15.2518918 15 14 C12.4412403 13.51002474 9.88347822 13.12621117 7.3046875 12.7578125 C4.36889796 11.79248509 3.50591428 10.66093591 2 8 C1.8125 4.75 1.8125 4.75 2 2 C1.34 2 0.68 2 0 2 C0 1.34 0 0.68 0 0 Z " fill="#CCCCCD" transform="translate(48,379)"/>
<path d="M0 0 C3 2 3 2 3.75 5.3125 C4.3064035 11.21474108 3.58242676 17.12196995 3 23 C2.01 23.33 1.02 23.66 0 24 C0 16.08 0 8.16 0 0 Z " fill="#495F3A" transform="translate(82,165)"/>
<path d="M0 0 C2.97 0 5.94 0 9 0 C8.67 0.66 8.34 1.32 8 2 C6.02 2 4.04 2 2 2 C1.67 7.28 1.34 12.56 1 18 C-0.32 18 -1.64 18 -3 18 C-2.6919856 15.37440156 -2.37879818 12.74960194 -2.0625 10.125 C-1.97548828 9.37863281 -1.88847656 8.63226563 -1.79882812 7.86328125 C-1.11328125 2.2265625 -1.11328125 2.2265625 0 0 Z " fill="#A0A0A1" transform="translate(250,350)"/>
<path d="M0 0 C1.32 0.66 2.64 1.32 4 2 C4 3.65 4 5.3 4 7 C9.445 6.505 9.445 6.505 15 6 C15 6.99 15 7.98 15 9 C9.72 9 4.44 9 -1 9 C-2.125 3.375 -2.125 3.375 0 0 Z " fill="#272727" transform="translate(298,351)"/>
<path d="M0 0 C0.99 0.33 1.98 0.66 3 1 C1.78868871 2.82448127 0.55523257 4.63427436 -0.6875 6.4375 C-1.37199219 7.44683594 -2.05648437 8.45617187 -2.76171875 9.49609375 C-5.27992512 12.31314485 -6.33087522 12.6739873 -10 13 C-10.99 13.33 -11.98 13.66 -13 14 C-13.495 15.2375 -13.495 15.2375 -14 16.5 C-14.495 17.7375 -14.495 17.7375 -15 19 C-15.99 19.33 -16.98 19.66 -18 20 C-15.96248998 14.99883905 -12.1143779 11.90543204 -8 8.5625 C-4.87953971 5.89710684 -2.53657879 3.20802611 0 0 Z " fill="#55684B" transform="translate(231,78)"/>
<path d="M0 0 C1 3 1 3 -0.546875 6.6875 C-1.27090577 8.13023779 -2.00575578 9.56758476 -2.75 11 C-3.29140625 12.08667969 -3.29140625 12.08667969 -3.84375 13.1953125 C-5.59685665 16.63800744 -7.14073527 19.35064565 -10 22 C-9.125 16.125 -9.125 16.125 -8 15 C-8.33 14.34 -8.66 13.68 -9 13 C-7.94515876 9.57176596 -6.71687212 7.34638956 -4 5 C-3.67 5.33 -3.34 5.66 -3 6 C-2.01 4.02 -1.02 2.04 0 0 Z " fill="#586C50" transform="translate(128,195)"/>
<path d="M0 0 C0.33 0.66 0.66 1.32 1 2 C1.99 1.67 2.98 1.34 4 1 C3.67 1.99 3.34 2.98 3 4 C5.97 4.33 8.94 4.66 12 5 C12 5.33 12 5.66 12 6 C9.36 6 6.72 6 4 6 C3.9175 7.0725 3.835 8.145 3.75 9.25 C2.94523098 13.2738451 2.12270126 14.48169253 -1 17 C-1 15.68 -1 14.36 -1 13 C-0.34 12.67 0.32 12.34 1 12 C1.72159424 10.35636866 2.39351421 8.68949614 3 7 C1.35 7 -0.3 7 -2 7 C-2.33 7.66 -2.66 8.32 -3 9 C-3.75 6.75 -3.75 6.75 -4 4 C-2.0625 1.6875 -2.0625 1.6875 0 0 Z " fill="#CBD4BE" transform="translate(81,296)"/>
<path d="M0 0 C10.56 0 21.12 0 32 0 C32 0.33 32 0.66 32 1 C31.03175293 1.08302368 31.03175293 1.08302368 30.04394531 1.16772461 C27.11233145 1.42098611 24.18117319 1.67919036 21.25 1.9375 C19.72632813 2.06801758 19.72632813 2.06801758 18.171875 2.20117188 C17.1921875 2.28818359 16.2125 2.37519531 15.203125 2.46484375 C14.30239258 2.543396 13.40166016 2.62194824 12.47363281 2.70288086 C10.03241753 2.92694142 10.03241753 2.92694142 7.87792969 3.62329102 C4.76323116 4.24809338 2.65317012 2.50748302 0 1 C0 0.67 0 0.34 0 0 Z " fill="#CCCCCC" transform="translate(227,398)"/>
<path d="M0 0 C0 0.99 0 1.98 0 3 C1.65 3 3.3 3 5 3 C5 3.99 5 4.98 5 6 C1.37 6 -2.26 6 -6 6 C-6.33 4.68 -6.66 3.36 -7 2 C-7.66 2 -8.32 2 -9 2 C-9 1.34 -9 0.68 -9 0 C-5.62182575 -0.84454356 -3.32534757 -1.10844919 0 0 Z " fill="#262626" transform="translate(436,354)"/>
<path d="M0 0 C4.54805635 -0.17835515 7.8794254 0.00214565 12 2 C12 2.99 12 3.98 12 5 C11.01 5.66 10.02 6.32 9 7 C7.78715124 10.05429073 7.78715124 10.05429073 7 13 C6.34 13 5.68 13 5 13 C4.67 11.02 4.34 9.04 4 7 C5.32 6.34 6.64 5.68 8 5 C8 4.34 8 3.68 8 3 C5.03 2.67 2.06 2.34 -1 2 C-0.67 1.34 -0.34 0.68 0 0 Z " fill="#CDCDCD" transform="translate(115,377)"/>
<path d="M0 0 C1.19581936 3.46707359 0.77447408 5.53816787 -0.3125 9 C-2.05915609 14.93702828 -3.09289423 20.88503992 -4 27 C-4.33 27 -4.66 27 -5 27 C-5.72173814 6.63094584 -5.72173814 6.63094584 0 0 Z " fill="#DDE7CB" transform="translate(83,309)"/>
<path d="M0 0 C1.97119141 -0.34057617 1.97119141 -0.34057617 4.3515625 -0.29296875 C5.62773438 -0.2784668 5.62773438 -0.2784668 6.9296875 -0.26367188 C7.81914063 -0.23853516 8.70859375 -0.21339844 9.625 -0.1875 C10.97078125 -0.16719727 10.97078125 -0.16719727 12.34375 -0.14648438 C14.56309789 -0.11106925 16.78125188 -0.06168461 19 0 C18.67 0.99 18.34 1.98 18 3 C11.4 3 4.8 3 -2 3 C-1.34 2.01 -0.68 1.02 0 0 Z " fill="#BEBEBB" transform="translate(73,383)"/>
<path d="M0 0 C10.395 0.99 10.395 0.99 21 2 C21 2.66 21 3.32 21 4 C14.4 4 7.8 4 1 4 C0.67 2.68 0.34 1.36 0 0 Z " fill="#353535" transform="translate(326,363)"/>
<path d="M0 0 C1.32 0.66 2.64 1.32 4 2 C4 6.29 4 10.58 4 15 C2.35 15 0.7 15 -1 15 C-0.67 10.05 -0.34 5.1 0 0 Z " fill="#4C6143" transform="translate(86,152)"/>
<path d="M0 0 C0.99 0.66 1.98 1.32 3 2 C0.375 6.875 0.375 6.875 -3 8 C-4.09166275 9.93330603 -4.09166275 9.93330603 -5 12 C-5.66 12.66 -6.32 13.32 -7 14 C-7.33 12.02 -7.66 10.04 -8 8 C-7.34 8 -6.68 8 -6 8 C-5.7525 7.236875 -5.505 6.47375 -5.25 5.6875 C-3.89004442 2.7635955 -2.68414174 1.69995644 0 0 Z " fill="#5A7254" transform="translate(222,89)"/>
<path d="M0 0 C0.66 0 1.32 0 2 0 C1.53525952 5.52796567 0.90364379 11.01600741 0.0625 16.5 C-0.09089844 17.5003125 -0.24429688 18.500625 -0.40234375 19.53125 C-1 22 -1 22 -3 24 C-3.30668218 16.29886968 -3.51689598 7.03379196 0 0 Z " fill="#91AC74" transform="translate(74,325)"/>
<path d="M0 0 C0.33 0 0.66 0 1 0 C1.33 6.27 1.66 12.54 2 19 C3.65 19 5.3 19 7 19 C7 15.37 7 11.74 7 8 C7.33 8 7.66 8 8 8 C8.02717692 10.06242617 8.0464758 12.12495703 8.0625 14.1875 C8.07410156 15.33605469 8.08570313 16.48460937 8.09765625 17.66796875 C8.01192832 20.59300586 7.67849023 23.16316291 7 26 C6.67 26 6.34 26 6 26 C6 24.02 6 22.04 6 20 C3.52733235 20.34444881 3.52733235 20.34444881 1 21 C0.67 21.66 0.34 22.32 0 23 C0 15.41 0 7.82 0 0 Z " fill="#CCC9C6" transform="translate(121,327)"/>
<path d="M0 0 C0.66 0 1.32 0 2 0 C2.33 0.99 2.66 1.98 3 3 C5.7736129 4.42642949 8.16101731 5.02477189 11.25 5.5 C12.1575 5.665 13.065 5.83 14 6 C14.33 6.66 14.66 7.32 15 8 C17.58605332 8.4683265 17.58605332 8.4683265 20.5625 8.625 C21.57441406 8.69976562 22.58632813 8.77453125 23.62890625 8.8515625 C24.80259766 8.92503906 24.80259766 8.92503906 26 9 C26 9.66 26 10.32 26 11 C8.23003195 9.36102236 8.23003195 9.36102236 2 5 C0.5 2.25 0.5 2.25 0 0 Z " fill="#141414" transform="translate(415,351)"/>
<path d="M0 0 C1.60294922 0.15275391 1.60294922 0.15275391 3.23828125 0.30859375 C4.45064453 0.43427734 4.45064453 0.43427734 5.6875 0.5625 C6.0175 1.5525 6.3475 2.5425 6.6875 3.5625 C7.3475 3.8925 8.0075 4.2225 8.6875 4.5625 C8.3575 5.2225 8.0275 5.8825 7.6875 6.5625 C7.0275 6.5625 6.3675 6.5625 5.6875 6.5625 C5.6875 5.2425 5.6875 3.9225 5.6875 2.5625 C0.0775 2.5625 -5.5325 2.5625 -11.3125 2.5625 C-11.3125 1.9025 -11.3125 1.2425 -11.3125 0.5625 C-7.36602382 -0.42594951 -4.03857036 -0.39941905 0 0 Z " fill="#313131" transform="translate(319.3125,360.4375)"/>
<path d="M0 0 C1.32 0 2.64 0 4 0 C5.125 3.75 5.125 3.75 4 6 C-4.91 6 -13.82 6 -23 6 C-23 5.67 -23 5.34 -23 5 C-15.41 5 -7.82 5 0 5 C0 3.35 0 1.7 0 0 Z " fill="#515151" transform="translate(348,363)"/>
<path d="M0 0 C4.95 0 9.9 0 15 0 C14.67 0.99 14.34 1.98 14 3 C9.38 3 4.76 3 0 3 C0 2.01 0 1.02 0 0 Z " fill="#848585" transform="translate(74,388)"/>
<path d="M0 0 C-0.33 3.63 -0.66 7.26 -1 11 C-1.33 11 -1.66 11 -2 11 C-2 9.35 -2 7.7 -2 6 C-6.455 7.485 -6.455 7.485 -11 9 C-3.5 0 -3.5 0 0 0 Z " fill="#818679" transform="translate(251,44)"/>
<path d="M0 0 C0.33 0 0.66 0 1 0 C1.8568534 3.74527857 2.19224764 7.28446798 2.25 11.125 C2.27578125 12.15882813 2.3015625 13.19265625 2.328125 14.2578125 C2 17 2 17 0.484375 18.8671875 C-0.25039063 19.42792969 -0.25039063 19.42792969 -1 20 C-1.95261487 15.23692563 -2.08333357 10.8333472 -2 6 C-1.67 6 -1.34 6 -1 6 C-0.67 7.65 -0.34 9.3 0 11 C0 7.37 0 3.74 0 0 Z " fill="#BBB9B8" transform="translate(41,259)"/>
<path d="M0 0 C2 1 2 1 3 3 C3.66 3 4.32 3 5 3 C3.79618552 5.49361571 2.54571278 7.68143083 1 10 C-0.32 10 -1.64 10 -3 10 C-2.39009109 6.44219804 -1.4216319 3.3171411 0 0 Z " fill="#536748" transform="translate(109,220)"/>
<path d="M0 0 C2.1464753 0.11344376 4.29220592 0.24106345 6.4375 0.375 C8.22994141 0.47941406 8.22994141 0.47941406 10.05859375 0.5859375 C11.02925781 0.72257812 11.99992187 0.85921875 13 1 C13.33 1.66 13.66 2.32 14 3 C11.32356043 3.89214652 9.74615622 4.13540211 7 4.125 C5.9790625 4.12886719 5.9790625 4.12886719 4.9375 4.1328125 C3 4 3 4 0 3 C0 2.01 0 1.02 0 0 Z " fill="#373737" transform="translate(303,363)"/>
<path d="M0 0 C0.33 0 0.66 0 1 0 C1 1.65 1 3.3 1 5 C1.66 5 2.32 5 3 5 C4.09898702 8.29696105 3.87124444 9.40494903 3.0625 12.6875 C2.77052734 13.89986328 2.77052734 13.89986328 2.47265625 15.13671875 C2.31667969 15.75160156 2.16070312 16.36648437 2 17 C1.34 17 0.68 17 0 17 C-0.89316269 11.06390334 -0.97040422 5.93024803 0 0 Z " fill="#5C6D51" transform="translate(84,128)"/>
<path d="M0 0 C0.33 0 0.66 0 1 0 C1.19818283 6.70518586 1.30844801 12.65176798 -1 19 C-1.99 19 -2.98 19 -4 19 C-3.69201674 17.51988629 -3.378482 16.04092675 -3.0625 14.5625 C-2.80146484 13.32693359 -2.80146484 13.32693359 -2.53515625 12.06640625 C-2 10 -2 10 -1 9 C-0.76807135 7.48530552 -0.58784762 5.96245438 -0.4375 4.4375 C-0.35371094 3.61121094 -0.26992187 2.78492188 -0.18359375 1.93359375 C-0.12300781 1.29550781 -0.06242188 0.65742188 0 0 Z " fill="#BDBDBD" transform="translate(131,279)"/>
<path d="M0 0 C0.33 0 0.66 0 1 0 C1.25126646 7.53799392 1.25126646 7.53799392 0.03125 9.78125 C-1.46453132 12.99944618 -1.46666028 16.25992859 -1.625 19.75 C-1.66367188 20.44738281 -1.70234375 21.14476562 -1.7421875 21.86328125 C-1.83598624 23.57510818 -1.91906174 25.28751682 -2 27 C-2.33 27 -2.66 27 -3 27 C-3.05819424 23.75007554 -3.09366116 20.50028565 -3.125 17.25 C-3.14175781 16.32960938 -3.15851563 15.40921875 -3.17578125 14.4609375 C-3.18222656 13.57148438 -3.18867187 12.68203125 -3.1953125 11.765625 C-3.20578613 10.94868164 -3.21625977 10.13173828 -3.22705078 9.29003906 C-2.97543327 6.75221948 -2.23011726 5.21318169 -1 3 C-0.67 2.01 -0.34 1.02 0 0 Z " fill="#B0B5A1" transform="translate(89,245)"/>
<path d="M0 0 C1.32 0 2.64 0 4 0 C4 2.97 4 5.94 4 9 C2.68 9.33 1.36 9.66 0 10 C0 6.7 0 3.4 0 0 Z " fill="#5D5D5D" transform="translate(254,352)"/>
<path d="M0 0 C2 2 2 2 2.1953125 5.0390625 C2.17210938 6.22242188 2.14890625 7.40578125 2.125 8.625 C2.10695313 9.81351562 2.08890625 11.00203125 2.0703125 12.2265625 C2.04710938 13.14179688 2.02390625 14.05703125 2 15 C0.68 15.33 -0.64 15.66 -2 16 C-1.34 10.72 -0.68 5.44 0 0 Z " fill="#9EAD93" transform="translate(84,282)"/>
<path d="M0 0 C0.66 0 1.32 0 2 0 C2.144375 1.216875 2.28875 2.43375 2.4375 3.6875 C2.82780953 6.82670377 3.32351856 9.9075134 4 13 C3.34 13 2.68 13 2 13 C1.34 12.01 0.68 11.02 0 10 C-0.66 10 -1.32 10 -2 10 C-1.85950482 8.52031676 -1.71245174 7.04125484 -1.5625 5.5625 C-1.48128906 4.73878906 -1.40007812 3.91507813 -1.31640625 3.06640625 C-1 1 -1 1 0 0 Z " fill="#647B5D" transform="translate(85,217)"/>
<path d="M0 0 C2 2 2 2 2.046875 4.4609375 C1.94890625 5.42257812 1.8509375 6.38421875 1.75 7.375 C1.61851562 8.80972656 1.61851562 8.80972656 1.484375 10.2734375 C1 13 1 13 -1 17 C-1 14.03 -1 11.06 -1 8 C-2.32 8 -3.64 8 -5 8 C-5 6.35 -5 4.7 -5 3 C-4.01 3.495 -4.01 3.495 -3 4 C-3.33 4.99 -3.66 5.98 -4 7 C-3.01 6.67 -2.02 6.34 -1 6 C-0.67 4.02 -0.34 2.04 0 0 Z " fill="#D1D0D0" transform="translate(131,291)"/>
<path d="M0 0 C4.29 0.33 8.58 0.66 13 1 C13 1.66 13 2.32 13 3 C7.39 3 1.78 3 -4 3 C-2.68 2.67 -1.36 2.34 0 2 C0 1.34 0 0.68 0 0 Z " fill="#363636" transform="translate(402,360)"/>
<path d="M0 0 C1.65 0 3.3 0 5 0 C5 0.99 5 1.98 5 3 C5.66 3.66 6.32 4.32 7 5 C-0.75 6.125 -0.75 6.125 -3 5 C-3 4.34 -3 3.68 -3 3 C-2.01 3 -1.02 3 0 3 C0 2.01 0 1.02 0 0 Z " fill="#333333" transform="translate(343,351)"/>
<path d="M0 0 C0 0.66 0 1.32 0 2 C-0.91523438 2.13277344 -1.83046875 2.26554687 -2.7734375 2.40234375 C-3.96195313 2.57894531 -5.15046875 2.75554687 -6.375 2.9375 C-7.55835938 3.11152344 -8.74171875 3.28554687 -9.9609375 3.46484375 C-12.90702381 3.83462786 -12.90702381 3.83462786 -15 5 C-15.99 4.34 -16.98 3.68 -18 3 C-15.75376301 2.30030318 -13.50283586 1.61564957 -11.25 0.9375 C-9.99703125 0.55464844 -8.7440625 0.17179687 -7.453125 -0.22265625 C-4.3261992 -0.92656828 -2.90533954 -1.16653785 0 0 Z " fill="#73766B" transform="translate(186,63)"/>
<path d="M0 0 C3.63 0 7.26 0 11 0 C11.33 0.99 11.66 1.98 12 3 C15.63 3 19.26 3 23 3 C23 3.33 23 3.66 23 4 C21.10448978 4.05441656 19.2085208 4.09298035 17.3125 4.125 C16.25675781 4.14820313 15.20101562 4.17140625 14.11328125 4.1953125 C10.94676425 3.99666024 8.87242423 3.28094594 6 2 C4.0075675 1.62406934 2.0081326 1.28020455 0 1 C0 0.67 0 0.34 0 0 Z " fill="#D4D4D4" transform="translate(57,391)"/>
<path d="M0 0 C0.33 0 0.66 0 1 0 C1.05449838 1.72880982 1.09301688 3.45812712 1.125 5.1875 C1.14820312 6.15042969 1.17140625 7.11335938 1.1953125 8.10546875 C0.9913544 11.12812778 0.26874632 13.26769985 -1 16 C-1.33 16 -1.66 16 -2 16 C-2.20413361 10.26157749 -2.27141454 5.39460953 0 0 Z " fill="#A0B57A" transform="translate(70,352)"/>
<path d="M0 0 C0.66 0 1.32 0 2 0 C2 1.32 2 2.64 2 4 C2.66 4 3.32 4 4 4 C4 6.31 4 8.62 4 11 C3.34 11 2.68 11 2 11 C1.34 11.66 0.68 12.32 0 13 C0 8.71 0 4.42 0 0 Z " fill="#BEBAB7" transform="translate(123,300)"/>
<path d="M0 0 C0.33 0 0.66 0 1 0 C1.33 4.95 1.66 9.9 2 15 C1.01 15.33 0.02 15.66 -1 16 C-1.02701408 13.89590361 -1.04640223 11.79170822 -1.0625 9.6875 C-1.07410156 8.51574219 -1.08570313 7.34398437 -1.09765625 6.13671875 C-1 3 -1 3 0 0 Z " fill="#CBCBCB" transform="translate(131,266)"/>
<path d="M0 0 C3.63 0 7.26 0 11 0 C9.02 0.99 9.02 0.99 7 2 C4.51254129 3.89520664 2.21106147 5.78893853 0 8 C0 5.36 0 2.72 0 0 Z " fill="#879280" transform="translate(97,233)"/>
<path d="M0 0 C0.86625 0.4640625 0.86625 0.4640625 1.75 0.9375 C3.84294184 1.92583364 5.74535275 2.5168613 8 3 C8 3.99 8 4.98 8 6 C5.66705225 6.04241723 3.33297433 6.04092937 1 6 C0 5 0 5 -0.0625 2.4375 C-0.041875 1.633125 -0.02125 0.82875 0 0 Z " fill="#ACABAD" transform="translate(53,384)"/>
<path d="M0 0 C0.33 0.99 0.66 1.98 1 3 C1.99 3.33 2.98 3.66 4 4 C3.01 4.66 2.02 5.32 1 6 C0.01 7.485 0.01 7.485 -1 9 C-1.33 8.34 -1.66 7.68 -2 7 C-3.64363134 6.27840576 -5.31050386 5.60648579 -7 5 C-7 4.34 -7 3.68 -7 3 C-2.25 1.875 -2.25 1.875 0 3 C0 2.01 0 1.02 0 0 Z " fill="#DBDBDA" transform="translate(71,376)"/>
<path d="M0 0 C0 0.66 0 1.32 0 2 C-2.31 2.33 -4.62 2.66 -7 3 C-7 3.66 -7 4.32 -7 5 C-8.65 4.67 -10.3 4.34 -12 4 C-11.01 3.67 -10.02 3.34 -9 3 C-9 2.01 -9 1.02 -9 0 C-5.62182575 -0.84454356 -3.32534757 -1.10844919 0 0 Z " fill="#151515" transform="translate(386,352)"/>
<path d="M0 0 C0.33 0 0.66 0 1 0 C1 2.31 1 4.62 1 7 C3.31 7.33 5.62 7.66 8 8 C7.67 8.99 7.34 9.98 7 11 C4.69 10.67 2.38 10.34 0 10 C0 6.7 0 3.4 0 0 Z " fill="#373737" transform="translate(258,351)"/>
<path d="M0 0 C2.97 0 5.94 0 9 0 C9 0.33 9 0.66 9 1 C11.31 1.33 13.62 1.66 16 2 C16 2.33 16 2.66 16 3 C14.25181409 3.22304441 12.50129677 3.4278645 10.75 3.625 C9.77546875 3.74101563 8.8009375 3.85703125 7.796875 3.9765625 C4.83592637 4.00137492 3.43285602 3.64050383 1 2 C0.67 1.34 0.34 0.68 0 0 Z " fill="#66695C" transform="translate(201,61)"/>
<path d="M0 0 C0 1.65 0 3.3 0 5 C-2.64 5.33 -5.28 5.66 -8 6 C-8 5.34 -8 4.68 -8 4 C-3.64705882 0 -3.64705882 0 0 0 Z " fill="#545C49" transform="translate(249,50)"/>
<path d="M0 0 C0.66 0 1.32 0 2 0 C2 2.64 2 5.28 2 8 C1.67 7.01 1.34 6.02 1 5 C-1.31 5 -3.62 5 -6 5 C-5.67 4.01 -5.34 3.02 -5 2 C-3.35 2 -1.7 2 0 2 C0 1.34 0 0.68 0 0 Z " fill="#64725D" transform="translate(92,234)"/>
<path d="M0 0 C0.33 0 0.66 0 1 0 C1 5.28 1 10.56 1 16 C1.99 16.33 2.98 16.66 4 17 C3.01 18.32 2.02 19.64 1 21 C0.87625 20.360625 0.7525 19.72125 0.625 19.0625 C0.41875 18.381875 0.2125 17.70125 0 17 C-0.66 16.67 -1.32 16.34 -2 16 C-1.67 15.67 -1.34 15.34 -1 15 C-0.76346477 12.47403741 -0.57826308 9.96892793 -0.4375 7.4375 C-0.39431641 6.72658203 -0.35113281 6.01566406 -0.30664062 5.28320312 C-0.20028223 3.52238088 -0.09961154 1.7612168 0 0 Z " fill="#C1C6BD" transform="translate(82,215)"/>
<path d="M0 0 C1.8125 0.9375 1.8125 0.9375 2.8125 3.9375 C-0.56567425 4.78204356 -2.86215243 5.04594919 -6.1875 3.9375 C-2.77921598 -0.07940617 -2.77921598 -0.07940617 0 0 Z " fill="#62695A" transform="translate(236.1875,62.0625)"/>
<path d="M0 0 C0.66 0 1.32 0 2 0 C1.7178711 2.27203802 1.42397144 4.54261684 1.125 6.8125 C0.88136719 8.70935547 0.88136719 8.70935547 0.6328125 10.64453125 C0 14 0 14 -2 17 C-2.25287193 10.93107371 -1.69832609 5.83799592 0 0 Z " fill="#8F9785" transform="translate(87,267)"/>
<path d="M0 0 C0.66 0.33 1.32 0.66 2 1 C-0.13552597 4.20328895 -1.73232126 5.12108473 -5 7 C-5.66 7.66 -6.32 8.32 -7 9 C-9.625 9.125 -9.625 9.125 -12 9 C-9.67350413 6.49280542 -7.17318479 4.67816399 -4.3125 2.8125 C-3.50425781 2.28269531 -2.69601563 1.75289062 -1.86328125 1.20703125 C-1.24839844 0.80871094 -0.63351563 0.41039062 0 0 Z " fill="#818276" transform="translate(238,53)"/>
<path d="M0 0 C0.99 0 1.98 0 3 0 C3 0.66 3 1.32 3 2 C3.99 2 4.98 2 6 2 C6 2.66 6 3.32 6 4 C0.06 4.495 0.06 4.495 -6 5 C-6 4.34 -6 3.68 -6 3 C-4.02 2.67 -2.04 2.34 0 2 C0 1.34 0 0.68 0 0 Z " fill="#3E3E3E" transform="translate(282,363)"/>
<path d="M0 0 C5.28 0 10.56 0 16 0 C14.68 0.33 13.36 0.66 12 1 C12.33 1.99 12.66 2.98 13 4 C8.71 3.01 4.42 2.02 0 1 C0 0.67 0 0.34 0 0 Z " fill="#1B1B1B" transform="translate(341,360)"/>
<path d="M0 0 C0.33 1.32 0.66 2.64 1 4 C0.401875 4.144375 -0.19625 4.28875 -0.8125 4.4375 C-2.56150404 4.8872439 -4.28677023 5.42892341 -6 6 C-6.33 6.825 -6.66 7.65 -7 8.5 C-7.495 9.7375 -7.495 9.7375 -8 11 C-8.99 11.33 -9.98 11.66 -11 12 C-8.84618556 6.71336455 -4.57763162 3.22129633 0 0 Z " fill="#4A6043" transform="translate(224,86)"/>
<path d="M0 0 C0 0.99 0 1.98 0 3 C-3.63 3 -7.26 3 -11 3 C-11 2.34 -11 1.68 -11 1 C-7.32589215 -0.17571451 -3.83070817 -0.07366746 0 0 Z " fill="#2D2D2D" transform="translate(441,357)"/>
<path d="M0 0 C2.97 0 5.94 0 9 0 C9 0.66 9 1.32 9 2 C7.68 2 6.36 2 5 2 C5.33 3.32 5.66 4.64 6 6 C4.35 5.67 2.7 5.34 1 5 C1 4.34 1 3.68 1 3 C1.66 3 2.32 3 3 3 C3 2.34 3 1.68 3 1 C2.01 0.67 1.02 0.34 0 0 Z " fill="#3D3D3D" transform="translate(361,351)"/>
<path d="M0 0 C0.66 0.33 1.32 0.66 2 1 C1.6875 4.375 1.6875 4.375 1 8 C0.01 8.66 -0.98 9.32 -2 10 C-2 7.03 -2 4.06 -2 1 C-1.34 0.67 -0.68 0.34 0 0 Z " fill="#3F582A" transform="translate(84,188)"/>
<path d="M0 0 C-1.49920512 3.11373372 -3.08152136 6.12228205 -5 9 C-5.66 9 -6.32 9 -7 9 C-6.67 7.02 -6.34 5.04 -6 3 C-5.34 3 -4.68 3 -4 3 C-4 2.34 -4 1.68 -4 1 C-2 0 -2 0 0 0 Z " fill="#494949" transform="translate(240,123)"/>
<path d="M0 0 C2.88575819 0.39803561 3.82189513 0.79009069 5.75 3.0625 C6.36875 4.0215625 6.36875 4.0215625 7 5 C5.02 5.33 3.04 5.66 1 6 C1 5.34 1 4.68 1 4 C-0.65 4.33 -2.3 4.66 -4 5 C-3.34 4.34 -2.68 3.68 -2 3 C-0.68 3 0.64 3 2 3 C2 2.34 2 1.68 2 1 C1.34 0.67 0.68 0.34 0 0 Z " fill="#DADADA" transform="translate(59,380)"/>
<path d="M0 0 C0.33 0 0.66 0 1 0 C1.33 3.3 1.66 6.6 2 10 C0.68 10 -0.64 10 -2 10 C-1.34 6.7 -0.68 3.4 0 0 Z " fill="#A9A9A9" transform="translate(249,358)"/>
<path d="M0 0 C0 0.99 0 1.98 0 3 C-3.3 3 -6.6 3 -10 3 C-10 2.34 -10 1.68 -10 1 C-6.59437148 0.22157062 -3.49234244 -0.09978121 0 0 Z " fill="#353535" transform="translate(385,360)"/>
<path d="M0 0 C0.66 0 1.32 0 2 0 C2 2.31 2 4.62 2 7 C0.35 7 -1.3 7 -3 7 C-3.33 6.01 -3.66 5.02 -4 4 C-3.01 3.67 -2.02 3.34 -1 3 C-0.67 2.01 -0.34 1.02 0 0 Z " fill="#ADACAA" transform="translate(126,339)"/>
<path d="M0 0 C0.99 0.66 1.98 1.32 3 2 C0.25 6.875 0.25 6.875 -2 8 C-2.6875 5.6875 -2.6875 5.6875 -3 3 C-1.5625 1.1875 -1.5625 1.1875 0 0 Z " fill="#6F8668" transform="translate(222,89)"/>
<path d="M0 0 C2.97 0.495 2.97 0.495 6 1 C6 1.66 6 2.32 6 3 C3.04335481 4.4783226 0.25770263 4.06032783 -3 4 C-3 3.34 -3 2.68 -3 2 C-2.01 2 -1.02 2 0 2 C0 1.34 0 0.68 0 0 Z " fill="#303030" transform="translate(329,356)"/>
<path d="M0 0 C1.32 0.66 2.64 1.32 4 2 C4 3.32 4 4.64 4 6 C2.35 6 0.7 6 -1 6 C-1 3 -1 3 0 0 Z " fill="#414141" transform="translate(298,351)"/>
<path d="M0 0 C1.98 0.495 1.98 0.495 4 1 C4 1.99 4 2.98 4 4 C5.32 4.33 6.64 4.66 8 5 C6.02 5.66 4.04 6.32 2 7 C2 6.01 2 5.02 2 4 C1.01 3.67 0.02 3.34 -1 3 C-0.67 2.01 -0.34 1.02 0 0 Z " fill="#171717" transform="translate(348,351)"/>
<path d="M0 0 C0.66 0 1.32 0 2 0 C2 1.98 2 3.96 2 6 C1.34 6 0.68 6 0 6 C-0.33 7.32 -0.66 8.64 -1 10 C-1.66 10 -2.32 10 -3 10 C-3 9.01 -3 8.02 -3 7 C-2.34 7 -1.68 7 -1 7 C-0.67 4.69 -0.34 2.38 0 0 Z " fill="#908D8A" transform="translate(126,333)"/>
<path d="M0 0 C3.3 0 6.6 0 10 0 C10 0.33 10 0.66 10 1 C8.35 1 6.7 1 5 1 C5 1.66 5 2.32 5 3 C5.66 3.33 6.32 3.66 7 4 C4.69 3.67 2.38 3.34 0 3 C0 2.01 0 1.02 0 0 Z " fill="#1B1B1B" transform="translate(281,360)"/>
<path d="M0 0 C4.16138263 -0.08159574 7.9472484 0.01751476 12 1 C12 1.66 12 2.32 12 3 C10.37419034 2.88601335 8.74932843 2.75844341 7.125 2.625 C6.22007812 2.55539062 5.31515625 2.48578125 4.3828125 2.4140625 C2 2 2 2 0 0 Z " fill="#383838" transform="translate(258,363)"/>
<path d="M0 0 C4.29 0 8.58 0 13 0 C13 0.99 13 1.98 13 3 C11.35 3 9.7 3 8 3 C8 2.34 8 1.68 8 1 C5.36 1 2.72 1 0 1 C0 0.67 0 0.34 0 0 Z " fill="#181818" transform="translate(407,360)"/>
<path d="M0 0 C2.97 0.33 5.94 0.66 9 1 C7.68 1.33 6.36 1.66 5 2 C5 3.32 5 4.64 5 6 C3.68 5.67 2.36 5.34 1 5 C1 4.34 1 3.68 1 3 C1.66 3 2.32 3 3 3 C3 2.34 3 1.68 3 1 C2.01 0.67 1.02 0.34 0 0 Z " fill="#373737" transform="translate(383,351)"/>
<path d="M0 0 C3 3 3 3 3.07421875 5.26171875 C2.94660156 6.06222656 2.81898437 6.86273438 2.6875 7.6875 C2.50767578 8.89986328 2.50767578 8.89986328 2.32421875 10.13671875 C2.21722656 10.75160156 2.11023438 11.36648438 2 12 C1.01 11.34 0.02 10.68 -1 10 C-0.67 6.7 -0.34 3.4 0 0 Z " fill="#B3C392" transform="translate(70,344)"/>
<path d="M0 0 C0.66 0.33 1.32 0.66 2 1 C1.02471263 2.33617352 0.04466681 3.6688751 -0.9375 5 C-1.48277344 5.7425 -2.02804688 6.485 -2.58984375 7.25 C-3.28787109 8.11625 -3.28787109 8.11625 -4 9 C-4.33 9 -4.66 9 -5 9 C-5.3125 6.75 -5.3125 6.75 -5 4 C-2.5 1.6875 -2.5 1.6875 0 0 Z " fill="#627058" transform="translate(114,87)"/>
<path d="M0 0 C0.80824219 0.10183594 1.61648437 0.20367187 2.44921875 0.30859375 C3.06410156 0.39238281 3.67898437 0.47617187 4.3125 0.5625 C1.4129339 2.22126079 -0.60385209 2.7986216 -3.9375 2.6875 C-5.79375 2.625625 -5.79375 2.625625 -7.6875 2.5625 C-7.6875 1.9025 -7.6875 1.2425 -7.6875 0.5625 C-4.59271121 -0.46909626 -3.16118607 -0.41232862 0 0 Z " fill="#C6C6C6" transform="translate(76.6875,391.4375)"/>
<path d="M0 0 C1.65 0 3.3 0 5 0 C4.01 0.495 4.01 0.495 3 1 C3.33 2.32 3.66 3.64 4 5 C2.35 5 0.7 5 -1 5 C-1 2 -1 2 0 0 Z " fill="#414141" transform="translate(320,352)"/>
<path d="M0 0 C1.485 0.99 1.485 0.99 3 2 C3.375 4.4375 3.375 4.4375 3 7 C2.01 7.99 1.02 8.98 0 10 C0 6.7 0 3.4 0 0 Z " fill="#536945" transform="translate(82,165)"/>
<path d="M0 0 C0.556875 0.144375 1.11375 0.28875 1.6875 0.4375 C4.11384195 1.02769128 6.54906345 1.523429 9 2 C9 2.66 9 3.32 9 4 C6.36 4 3.72 4 1 4 C0.67 2.68 0.34 1.36 0 0 Z " fill="#3C3C3C" transform="translate(326,363)"/>
<path d="M0 0 C2.17766075 4.35532149 2.03039555 5.46625958 1 10 C1.66 10 2.32 10 3 10 C3 10.66 3 11.32 3 12 C1.68 12.33 0.36 12.66 -1 13 C-0.67 8.71 -0.34 4.42 0 0 Z " fill="#727272" transform="translate(253,355)"/>
<path d="M0 0 C3.63 0 7.26 0 11 0 C9.02 0.99 9.02 0.99 7 2 C7 2.66 7 3.32 7 4 C5.68 3.67 4.36 3.34 3 3 C3 2.34 3 1.68 3 1 C2.01 0.67 1.02 0.34 0 0 Z " fill="#2E2E2E" transform="translate(392,351)"/>
<path d="M0 0 C0.66 0.66 1.32 1.32 2 2 C1.01 5.3 0.02 8.6 -1 12 C-3 8 -3 8 -2.5390625 5.859375 C-2.23742187 5.16328125 -1.93578125 4.4671875 -1.625 3.75 C-1.32851562 3.04359375 -1.03203125 2.3371875 -0.7265625 1.609375 C-0.48679687 1.07828125 -0.24703125 0.5471875 0 0 Z " fill="#DBE2D5" transform="translate(88,285)"/>
<path d="M0 0 C-1.32 1.65 -2.64 3.3 -4 5 C-4 4.01 -4 3.02 -4 2 C-5.65 2 -7.3 2 -9 2 C-8.67 1.34 -8.34 0.68 -8 0 C-4.71585695 -0.95067299 -3.30306592 -1.10102197 0 0 Z " fill="#737868" transform="translate(249,57)"/>
<path d="M0 0 C1.32 0.33 2.64 0.66 4 1 C3.6875 2.9375 3.6875 2.9375 3 5 C2.01 5.33 1.02 5.66 0 6 C0 4.02 0 2.04 0 0 Z " fill="#F1F1F1" transform="translate(397,384)"/>
<path d="M0 0 C1.4540625 0.0309375 1.4540625 0.0309375 2.9375 0.0625 C2.9375 1.7125 2.9375 3.3625 2.9375 5.0625 C1.6175 4.7325 0.2975 4.4025 -1.0625 4.0625 C-0.7325 3.4025 -0.4025 2.7425 -0.0625 2.0625 C-1.3825 1.7325 -2.7025 1.4025 -4.0625 1.0625 C-3.0625 0.0625 -3.0625 0.0625 0 0 Z " fill="#B7B7B9" transform="translate(117.0625,384.9375)"/>
<path d="M0 0 C0 0.66 0 1.32 0 2 C0.66 1.67 1.32 1.34 2 1 C4.6723621 0.86584528 7.32250488 0.95681459 10 1 C10 1.33 10 1.66 10 2 C3.565 2.495 3.565 2.495 -3 3 C-3.33 2.34 -3.66 1.68 -4 1 C-2 0 -2 0 0 0 Z " fill="#CECED0" transform="translate(60,384)"/>
<path d="M0 0 C0.99 0 1.98 0 3 0 C2.67 2.31 2.34 4.62 2 7 C1.34 7 0.68 7 0 7 C-0.38133299 5.0085944 -0.71325582 3.00720923 -1 1 C-0.67 0.67 -0.34 0.34 0 0 Z " fill="#C6C6C6" transform="translate(120,383)"/>
<path d="M0 0 C1.32 0 2.64 0 4 0 C4.33 1.32 4.66 2.64 5 4 C3.35 4.33 1.7 4.66 0 5 C0 3.35 0 1.7 0 0 Z " fill="#4A4A4A" transform="translate(348,363)"/>
<path d="M0 0 C2.31 0 4.62 0 7 0 C7.33 0.99 7.66 1.98 8 3 C2.25 3.125 2.25 3.125 0 2 C0 1.34 0 0.68 0 0 Z " fill="#2B2B2B" transform="translate(286,361)"/>
<path d="M0 0 C0 0.99 0 1.98 0 3 C-2.97 3 -5.94 3 -9 3 C-5.92807025 0.26939578 -4.09590633 -0.34132553 0 0 Z " fill="#323232" transform="translate(313,357)"/>
<path d="M0 0 C0 2.97 0 5.94 0 9 C-0.99 8.67 -1.98 8.34 -3 8 C-3 5.69 -3 3.38 -3 1 C-1 0 -1 0 0 0 Z " fill="#8B967C" transform="translate(91,240)"/>
<path d="M0 0 C2.64 0 5.28 0 8 0 C7 2 7 2 5.15234375 2.6328125 C4.42144531 2.79523438 3.69054687 2.95765625 2.9375 3.125 C1.83728516 3.37636719 1.83728516 3.37636719 0.71484375 3.6328125 C0.14894531 3.75398438 -0.41695313 3.87515625 -1 4 C-0.67 2.68 -0.34 1.36 0 0 Z " fill="#D2D2D2" transform="translate(72,381)"/>
<path d="M0 0 C0 0.99 0 1.98 0 3 C-2.64 3 -5.28 3 -8 3 C-6.23110084 -0.53779831 -3.70375662 0 0 0 Z " fill="#3E3E3E" transform="translate(441,363)"/>
<path d="M0 0 C0.33 0 0.66 0 1 0 C1 2.31 1 4.62 1 7 C-0.32 7.33 -1.64 7.66 -3 8 C-2.37240135 5.07120629 -1.41377341 2.63904371 0 0 Z " fill="#B3B3B3" transform="translate(130,290)"/>
<path d="M0 0 C1.98 0 3.96 0 6 0 C6.33 0.66 6.66 1.32 7 2 C4.36 2.66 1.72 3.32 -1 4 C-0.67 2.68 -0.34 1.36 0 0 Z " fill="#D7D7D7" transform="translate(39,229)"/>
<path d="M0 0 C1.65 0 3.3 0 5 0 C5.33 0.99 5.66 1.98 6 3 C2.25 4.125 2.25 4.125 0 3 C0 2.01 0 1.02 0 0 Z " fill="#A5A5A5" transform="translate(103,388)"/>
<path d="M0 0 C0.99 0.33 1.98 0.66 3 1 C3 1.66 3 2.32 3 3 C3.99 3.66 4.98 4.32 6 5 C2 5 2 5 -0.25 3 C-0.8275 2.34 -1.405 1.68 -2 1 C-1.34 0.67 -0.68 0.34 0 0 Z " fill="#E1E1E1" transform="translate(52,378)"/>
<path d="M0 0 C-0.33 0.66 -0.66 1.32 -1 2 C-3.32156597 2.40729228 -5.6568787 2.74438677 -8 3 C-8 2.34 -8 1.68 -8 1 C-5.07175348 0.02391783 -3.04386724 -0.08226668 0 0 Z " fill="#393939" transform="translate(400,357)"/>
<path d="M0 0 C2.64 0 5.28 0 8 0 C6.68 0.33 5.36 0.66 4 1 C4 1.99 4 2.98 4 4 C3.01 4 2.02 4 1 4 C0.67 2.68 0.34 1.36 0 0 Z " fill="#2E2E2E" transform="translate(351,351)"/>
<path d="M0 0 C0.33 0 0.66 0 1 0 C1 3.3 1 6.6 1 10 C0.01 10.33 -0.98 10.66 -2 11 C-2 9.68 -2 8.36 -2 7 C-1.34 7 -0.68 7 0 7 C0 4.69 0 2.38 0 0 Z " fill="#B5B1AF" transform="translate(128,308)"/>
<path d="M0 0 C0.33 0 0.66 0 1 0 C1.36923077 5.53846154 1.36923077 5.53846154 -0.5 7.875 C-1.2425 8.431875 -1.2425 8.431875 -2 9 C-1.125 1.125 -1.125 1.125 0 0 Z " fill="#BAC7AE" transform="translate(93,250)"/>
<path d="M0 0 C0.33 0 0.66 0 1 0 C1.33 2.97 1.66 5.94 2 9 C0.68 9 -0.64 9 -2 9 C-2 8.01 -2 7.02 -2 6 C-1.34 6 -0.68 6 0 6 C0 4.02 0 2.04 0 0 Z " fill="#798E75" transform="translate(85,221)"/>
<path d="M0 0 C0.99 0.33 1.98 0.66 3 1 C0.03 3.475 0.03 3.475 -3 6 C-3.33 5.01 -3.66 4.02 -4 3 C-2.1875 1.4375 -2.1875 1.4375 0 0 Z " fill="#57604F" transform="translate(152,144)"/>
<path d="M0 0 C0.66 0.99 1.32 1.98 2 3 C1.01 4.485 1.01 4.485 0 6 C-1.32 5.34 -2.64 4.68 -4 4 C-2.68 2.68 -1.36 1.36 0 0 Z " fill="#54584A" transform="translate(210,70)"/>
</svg>
